<mxfile host="app.diagrams.net" modified="2024-02-09T19:18:37.944Z" agent="Mozilla/5.0 (Windows NT 10.0; Win64; x64) AppleWebKit/537.36 (KHTML, like Gecko) Chrome/121.0.0.0 Safari/537.36" etag="NcXtL8GOyRdkCjB1zPvv" version="23.1.2" type="device" pages="5">
  <diagram id="8AOgQalq2meuHyn_aD6V" name="1">
    <mxGraphModel dx="1032" dy="580" grid="1" gridSize="10" guides="1" tooltips="1" connect="1" arrows="1" fold="1" page="1" pageScale="1" pageWidth="827" pageHeight="1169" math="0" shadow="0">
      <root>
        <mxCell id="0" />
        <mxCell id="1" parent="0" />
        <mxCell id="HqFpNE_INQ7dtTJqBwxm-1" value="UI" style="shape=umlLifeline;perimeter=lifelinePerimeter;whiteSpace=wrap;html=1;container=0;dropTarget=0;collapsible=0;recursiveResize=0;outlineConnect=0;portConstraint=eastwest;newEdgeStyle={&quot;edgeStyle&quot;:&quot;elbowEdgeStyle&quot;,&quot;elbow&quot;:&quot;vertical&quot;,&quot;curved&quot;:0,&quot;rounded&quot;:0};" parent="1" vertex="1">
          <mxGeometry x="253" y="90" width="100" height="410" as="geometry" />
        </mxCell>
        <mxCell id="HqFpNE_INQ7dtTJqBwxm-2" value="" style="html=1;points=[];perimeter=orthogonalPerimeter;outlineConnect=0;targetShapes=umlLifeline;portConstraint=eastwest;newEdgeStyle={&quot;edgeStyle&quot;:&quot;elbowEdgeStyle&quot;,&quot;elbow&quot;:&quot;vertical&quot;,&quot;curved&quot;:0,&quot;rounded&quot;:0};" parent="HqFpNE_INQ7dtTJqBwxm-1" vertex="1">
          <mxGeometry x="45" y="70" width="10" height="300" as="geometry" />
        </mxCell>
        <mxCell id="HqFpNE_INQ7dtTJqBwxm-3" value="System" style="shape=umlLifeline;perimeter=lifelinePerimeter;whiteSpace=wrap;html=1;container=0;dropTarget=0;collapsible=0;recursiveResize=0;outlineConnect=0;portConstraint=eastwest;newEdgeStyle={&quot;edgeStyle&quot;:&quot;elbowEdgeStyle&quot;,&quot;elbow&quot;:&quot;vertical&quot;,&quot;curved&quot;:0,&quot;rounded&quot;:0};" parent="1" vertex="1">
          <mxGeometry x="449" y="90" width="100" height="410" as="geometry" />
        </mxCell>
        <mxCell id="HqFpNE_INQ7dtTJqBwxm-4" value="" style="html=1;points=[];perimeter=orthogonalPerimeter;outlineConnect=0;targetShapes=umlLifeline;portConstraint=eastwest;newEdgeStyle={&quot;edgeStyle&quot;:&quot;elbowEdgeStyle&quot;,&quot;elbow&quot;:&quot;vertical&quot;,&quot;curved&quot;:0,&quot;rounded&quot;:0};" parent="HqFpNE_INQ7dtTJqBwxm-3" vertex="1">
          <mxGeometry x="45" y="70" width="10" height="300" as="geometry" />
        </mxCell>
        <mxCell id="HqFpNE_INQ7dtTJqBwxm-5" value="" style="endArrow=none;dashed=1;html=1;rounded=0;" parent="1" edge="1">
          <mxGeometry width="50" height="50" relative="1" as="geometry">
            <mxPoint x="118" y="500" as="sourcePoint" />
            <mxPoint x="118" y="160" as="targetPoint" />
          </mxGeometry>
        </mxCell>
        <mxCell id="HqFpNE_INQ7dtTJqBwxm-6" value="Users" style="shape=umlActor;verticalLabelPosition=bottom;verticalAlign=top;html=1;outlineConnect=0;" parent="1" vertex="1">
          <mxGeometry x="109" y="90" width="20" height="40" as="geometry" />
        </mxCell>
        <mxCell id="HqFpNE_INQ7dtTJqBwxm-7" value="Alternative" style="shape=umlFrame;whiteSpace=wrap;html=1;pointerEvents=0;" parent="1" vertex="1">
          <mxGeometry x="79" y="280" width="670" height="140" as="geometry" />
        </mxCell>
        <mxCell id="HqFpNE_INQ7dtTJqBwxm-8" value="" style="line;strokeWidth=1;fillColor=none;align=left;verticalAlign=middle;spacingTop=-1;spacingLeft=3;spacingRight=3;rotatable=0;labelPosition=right;points=[];portConstraint=eastwest;strokeColor=inherit;" parent="1" vertex="1">
          <mxGeometry x="79" y="338.5" width="660" height="8" as="geometry" />
        </mxCell>
        <mxCell id="HqFpNE_INQ7dtTJqBwxm-9" value="&lt;b style=&quot;font-size: 16px;&quot;&gt;&lt;font style=&quot;font-size: 16px;&quot;&gt;Sequence Diagram - &lt;/font&gt;&lt;font style=&quot;font-size: 16px;&quot;&gt;Login to the Website&lt;/font&gt;&lt;/b&gt;&lt;b style=&quot;border-color: var(--border-color); font-size: 16px;&quot;&gt;&amp;nbsp;&lt;/b&gt;" style="text;html=1;strokeColor=none;fillColor=none;align=center;verticalAlign=middle;whiteSpace=wrap;rounded=0;" parent="1" vertex="1">
          <mxGeometry x="134" y="40" width="560" height="30" as="geometry" />
        </mxCell>
        <mxCell id="HqFpNE_INQ7dtTJqBwxm-10" value="Display the User&#39;s Dashboard" style="html=1;verticalAlign=bottom;endArrow=open;edgeStyle=elbowEdgeStyle;elbow=vertical;curved=0;rounded=0;dashed=1;endFill=0;" parent="1" edge="1">
          <mxGeometry x="0.0857" width="80" relative="1" as="geometry">
            <mxPoint x="299" y="335" as="sourcePoint" />
            <mxPoint x="119" y="330" as="targetPoint" />
            <Array as="points">
              <mxPoint x="229" y="330" />
              <mxPoint x="269" y="320" />
              <mxPoint x="233" y="350" />
            </Array>
            <mxPoint as="offset" />
          </mxGeometry>
        </mxCell>
        <mxCell id="HqFpNE_INQ7dtTJqBwxm-11" value="&lt;font style=&quot;font-size: 10px;&quot;&gt;&lt;b&gt;[if login valid]&lt;/b&gt;&lt;/font&gt;" style="text;html=1;strokeColor=none;fillColor=none;align=left;verticalAlign=middle;whiteSpace=wrap;rounded=0;" parent="1" vertex="1">
          <mxGeometry x="169" y="285" width="80" height="10" as="geometry" />
        </mxCell>
        <mxCell id="HqFpNE_INQ7dtTJqBwxm-12" value="&lt;font style=&quot;font-size: 10px;&quot;&gt;&lt;b&gt;[else]&lt;/b&gt;&lt;/font&gt;" style="text;html=1;strokeColor=none;fillColor=none;align=left;verticalAlign=middle;whiteSpace=wrap;rounded=0;" parent="1" vertex="1">
          <mxGeometry x="79" y="346.5" width="80" height="10" as="geometry" />
        </mxCell>
        <mxCell id="HqFpNE_INQ7dtTJqBwxm-13" value="" style="shape=umlDestroy;whiteSpace=wrap;html=1;strokeWidth=3;targetShapes=umlLifeline;" parent="1" vertex="1">
          <mxGeometry x="294" y="468" width="20" height="20" as="geometry" />
        </mxCell>
        <mxCell id="HqFpNE_INQ7dtTJqBwxm-14" value="" style="shape=umlDestroy;whiteSpace=wrap;html=1;strokeWidth=3;targetShapes=umlLifeline;" parent="1" vertex="1">
          <mxGeometry x="474" y="470" width="20" height="20" as="geometry" />
        </mxCell>
        <mxCell id="HqFpNE_INQ7dtTJqBwxm-15" value="Verify Username and Password" style="html=1;verticalAlign=bottom;endArrow=block;edgeStyle=elbowEdgeStyle;elbow=vertical;curved=0;rounded=0;" parent="1" source="HqFpNE_INQ7dtTJqBwxm-4" target="HqFpNE_INQ7dtTJqBwxm-19" edge="1">
          <mxGeometry x="0.0286" relative="1" as="geometry">
            <mxPoint x="495" y="280" as="sourcePoint" />
            <Array as="points">
              <mxPoint x="639" y="260" />
              <mxPoint x="595" y="280" />
              <mxPoint x="575" y="310" />
            </Array>
            <mxPoint x="670" y="280" as="targetPoint" />
            <mxPoint as="offset" />
          </mxGeometry>
        </mxCell>
        <mxCell id="HqFpNE_INQ7dtTJqBwxm-16" value="Username and Password are&lt;br style=&quot;border-color: var(--border-color);&quot;&gt;&amp;nbsp;invalid or incorrect" style="html=1;verticalAlign=bottom;endArrow=open;dashed=1;endSize=8;edgeStyle=elbowEdgeStyle;elbow=vertical;curved=0;rounded=0;" parent="1" source="HqFpNE_INQ7dtTJqBwxm-18" edge="1">
          <mxGeometry x="-0.0008" relative="1" as="geometry">
            <mxPoint x="509" y="375" as="targetPoint" />
            <Array as="points">
              <mxPoint x="609" y="375" />
              <mxPoint x="519" y="385" />
              <mxPoint x="539" y="375" />
              <mxPoint x="564" y="355" />
              <mxPoint x="654" y="425" />
              <mxPoint x="634" y="415" />
              <mxPoint x="614" y="405" />
              <mxPoint x="594" y="395" />
              <mxPoint x="609" y="375" />
            </Array>
            <mxPoint as="offset" />
            <mxPoint x="664" y="375" as="sourcePoint" />
          </mxGeometry>
        </mxCell>
        <mxCell id="HqFpNE_INQ7dtTJqBwxm-17" value="Username and Password are&amp;nbsp;&lt;br&gt;&amp;nbsp;Valid and Correct" style="html=1;verticalAlign=bottom;endArrow=open;dashed=1;endSize=8;edgeStyle=elbowEdgeStyle;elbow=vertical;curved=0;rounded=0;" parent="1" source="HqFpNE_INQ7dtTJqBwxm-18" edge="1">
          <mxGeometry relative="1" as="geometry">
            <mxPoint x="509" y="310" as="targetPoint" />
            <Array as="points">
              <mxPoint x="519" y="310" />
              <mxPoint x="509" y="300" />
              <mxPoint x="574" y="290" />
              <mxPoint x="614" y="330" />
              <mxPoint x="594" y="320" />
              <mxPoint x="604" y="320" />
            </Array>
            <mxPoint x="664" y="310" as="sourcePoint" />
          </mxGeometry>
        </mxCell>
        <mxCell id="HqFpNE_INQ7dtTJqBwxm-18" value="Database" style="shape=umlLifeline;perimeter=lifelinePerimeter;whiteSpace=wrap;html=1;container=0;dropTarget=0;collapsible=0;recursiveResize=0;outlineConnect=0;portConstraint=eastwest;newEdgeStyle={&quot;edgeStyle&quot;:&quot;elbowEdgeStyle&quot;,&quot;elbow&quot;:&quot;vertical&quot;,&quot;curved&quot;:0,&quot;rounded&quot;:0};" parent="1" vertex="1">
          <mxGeometry x="649" y="90" width="100" height="410" as="geometry" />
        </mxCell>
        <mxCell id="HqFpNE_INQ7dtTJqBwxm-19" value="" style="html=1;points=[];perimeter=orthogonalPerimeter;outlineConnect=0;targetShapes=umlLifeline;portConstraint=eastwest;newEdgeStyle={&quot;edgeStyle&quot;:&quot;elbowEdgeStyle&quot;,&quot;elbow&quot;:&quot;vertical&quot;,&quot;curved&quot;:0,&quot;rounded&quot;:0};" parent="HqFpNE_INQ7dtTJqBwxm-18" vertex="1">
          <mxGeometry x="45" y="70" width="10" height="300" as="geometry" />
        </mxCell>
        <mxCell id="HqFpNE_INQ7dtTJqBwxm-20" value="" style="shape=umlDestroy;whiteSpace=wrap;html=1;strokeWidth=3;targetShapes=umlLifeline;" parent="HqFpNE_INQ7dtTJqBwxm-18" vertex="1">
          <mxGeometry x="40" y="380" width="20" height="20" as="geometry" />
        </mxCell>
        <mxCell id="HqFpNE_INQ7dtTJqBwxm-21" value="Enter Username and Password" style="html=1;verticalAlign=bottom;endArrow=block;edgeStyle=elbowEdgeStyle;elbow=vertical;curved=0;rounded=0;" parent="1" edge="1">
          <mxGeometry x="-0.0588" relative="1" as="geometry">
            <mxPoint x="119" y="180" as="sourcePoint" />
            <Array as="points">
              <mxPoint x="229" y="180" />
              <mxPoint x="209" y="210" />
            </Array>
            <mxPoint x="299" y="180" as="targetPoint" />
            <mxPoint as="offset" />
          </mxGeometry>
        </mxCell>
        <mxCell id="HqFpNE_INQ7dtTJqBwxm-22" value="Display Invalid Username&lt;br&gt;&amp;nbsp;or Password" style="html=1;verticalAlign=bottom;endArrow=open;edgeStyle=elbowEdgeStyle;elbow=vertical;curved=0;rounded=0;dashed=1;endFill=0;" parent="1" edge="1">
          <mxGeometry x="0.0588" width="80" relative="1" as="geometry">
            <mxPoint x="299" y="390" as="sourcePoint" />
            <mxPoint x="119" y="390" as="targetPoint" />
            <Array as="points">
              <mxPoint x="229" y="390" />
              <mxPoint x="269" y="380" />
              <mxPoint x="233" y="410" />
            </Array>
            <mxPoint as="offset" />
          </mxGeometry>
        </mxCell>
        <mxCell id="HqFpNE_INQ7dtTJqBwxm-23" value="Re-Enter Username&amp;nbsp; &amp;amp; Password" style="html=1;verticalAlign=bottom;endArrow=open;edgeStyle=elbowEdgeStyle;elbow=vertical;curved=0;rounded=0;endFill=0;" parent="1" edge="1">
          <mxGeometry x="0.0526" width="80" relative="1" as="geometry">
            <mxPoint x="294.5" y="410" as="sourcePoint" />
            <mxPoint x="119" y="410" as="targetPoint" />
            <Array as="points">
              <mxPoint x="223.5" y="410" />
              <mxPoint x="263.5" y="400" />
              <mxPoint x="227.5" y="430" />
            </Array>
            <mxPoint as="offset" />
          </mxGeometry>
        </mxCell>
        <mxCell id="HqFpNE_INQ7dtTJqBwxm-24" value="Entered Username and Password" style="html=1;verticalAlign=bottom;endArrow=block;edgeStyle=elbowEdgeStyle;elbow=vertical;curved=0;rounded=0;" parent="1" target="HqFpNE_INQ7dtTJqBwxm-3" edge="1">
          <mxGeometry x="-0.0588" relative="1" as="geometry">
            <mxPoint x="309" y="220" as="sourcePoint" />
            <Array as="points">
              <mxPoint x="409" y="220" />
              <mxPoint x="389" y="250" />
            </Array>
            <mxPoint x="479" y="220" as="targetPoint" />
            <mxPoint as="offset" />
          </mxGeometry>
        </mxCell>
        <mxCell id="HqFpNE_INQ7dtTJqBwxm-25" value="User Validated" style="html=1;verticalAlign=bottom;endArrow=open;dashed=1;endSize=8;edgeStyle=elbowEdgeStyle;elbow=vertical;curved=0;rounded=0;" parent="1" source="HqFpNE_INQ7dtTJqBwxm-4" edge="1">
          <mxGeometry relative="1" as="geometry">
            <mxPoint x="306.5" y="320" as="targetPoint" />
            <Array as="points">
              <mxPoint x="336.5" y="320" />
              <mxPoint x="326.5" y="310" />
              <mxPoint x="391.5" y="300" />
              <mxPoint x="431.5" y="340" />
              <mxPoint x="411.5" y="330" />
              <mxPoint x="421.5" y="330" />
            </Array>
            <mxPoint x="481.5" y="320" as="sourcePoint" />
          </mxGeometry>
        </mxCell>
        <mxCell id="HqFpNE_INQ7dtTJqBwxm-26" value="User not Validated" style="html=1;verticalAlign=bottom;endArrow=open;dashed=1;endSize=8;edgeStyle=elbowEdgeStyle;elbow=vertical;curved=0;rounded=0;exitX=0.5;exitY=0.733;exitDx=0;exitDy=0;exitPerimeter=0;" parent="1" source="HqFpNE_INQ7dtTJqBwxm-4" edge="1">
          <mxGeometry relative="1" as="geometry">
            <mxPoint x="306.5" y="380" as="targetPoint" />
            <Array as="points">
              <mxPoint x="336.5" y="380" />
              <mxPoint x="326.5" y="370" />
              <mxPoint x="391.5" y="360" />
              <mxPoint x="431.5" y="400" />
              <mxPoint x="411.5" y="390" />
              <mxPoint x="421.5" y="390" />
            </Array>
            <mxPoint x="481.5" y="380" as="sourcePoint" />
          </mxGeometry>
        </mxCell>
        <mxCell id="hJyJAK8bZqe3dwNt4MRj-1" value="UI" style="shape=umlLifeline;perimeter=lifelinePerimeter;whiteSpace=wrap;html=1;container=0;dropTarget=0;collapsible=0;recursiveResize=0;outlineConnect=0;portConstraint=eastwest;newEdgeStyle={&quot;edgeStyle&quot;:&quot;elbowEdgeStyle&quot;,&quot;elbow&quot;:&quot;vertical&quot;,&quot;curved&quot;:0,&quot;rounded&quot;:0};" parent="1" vertex="1">
          <mxGeometry x="259" y="600" width="100" height="550" as="geometry" />
        </mxCell>
        <mxCell id="hJyJAK8bZqe3dwNt4MRj-2" value="" style="html=1;points=[];perimeter=orthogonalPerimeter;outlineConnect=0;targetShapes=umlLifeline;portConstraint=eastwest;newEdgeStyle={&quot;edgeStyle&quot;:&quot;elbowEdgeStyle&quot;,&quot;elbow&quot;:&quot;vertical&quot;,&quot;curved&quot;:0,&quot;rounded&quot;:0};" parent="hJyJAK8bZqe3dwNt4MRj-1" vertex="1">
          <mxGeometry x="45" y="70" width="10" height="440" as="geometry" />
        </mxCell>
        <mxCell id="hJyJAK8bZqe3dwNt4MRj-3" value="" style="shape=umlDestroy;whiteSpace=wrap;html=1;strokeWidth=3;targetShapes=umlLifeline;" parent="hJyJAK8bZqe3dwNt4MRj-1" vertex="1">
          <mxGeometry x="40" y="530" width="20" height="20" as="geometry" />
        </mxCell>
        <mxCell id="hJyJAK8bZqe3dwNt4MRj-4" value="Database" style="shape=umlLifeline;perimeter=lifelinePerimeter;whiteSpace=wrap;html=1;container=0;dropTarget=0;collapsible=0;recursiveResize=0;outlineConnect=0;portConstraint=eastwest;newEdgeStyle={&quot;edgeStyle&quot;:&quot;elbowEdgeStyle&quot;,&quot;elbow&quot;:&quot;vertical&quot;,&quot;curved&quot;:0,&quot;rounded&quot;:0};" parent="1" vertex="1">
          <mxGeometry x="649" y="600" width="100" height="550" as="geometry" />
        </mxCell>
        <mxCell id="hJyJAK8bZqe3dwNt4MRj-5" value="" style="html=1;points=[];perimeter=orthogonalPerimeter;outlineConnect=0;targetShapes=umlLifeline;portConstraint=eastwest;newEdgeStyle={&quot;edgeStyle&quot;:&quot;elbowEdgeStyle&quot;,&quot;elbow&quot;:&quot;vertical&quot;,&quot;curved&quot;:0,&quot;rounded&quot;:0};" parent="hJyJAK8bZqe3dwNt4MRj-4" vertex="1">
          <mxGeometry x="45" y="70" width="10" height="440" as="geometry" />
        </mxCell>
        <mxCell id="hJyJAK8bZqe3dwNt4MRj-6" value="" style="shape=umlDestroy;whiteSpace=wrap;html=1;strokeWidth=3;targetShapes=umlLifeline;" parent="hJyJAK8bZqe3dwNt4MRj-4" vertex="1">
          <mxGeometry x="40" y="530" width="20" height="20" as="geometry" />
        </mxCell>
        <mxCell id="hJyJAK8bZqe3dwNt4MRj-7" value="Verify Current Password" style="html=1;verticalAlign=bottom;endArrow=block;edgeStyle=elbowEdgeStyle;elbow=vertical;curved=0;rounded=0;" parent="1" source="hJyJAK8bZqe3dwNt4MRj-32" target="hJyJAK8bZqe3dwNt4MRj-5" edge="1">
          <mxGeometry relative="1" as="geometry">
            <mxPoint x="529" y="740" as="sourcePoint" />
            <Array as="points">
              <mxPoint x="579" y="740" />
              <mxPoint x="559" y="750" />
              <mxPoint x="489" y="740" />
              <mxPoint x="529" y="730" />
              <mxPoint x="509" y="760" />
            </Array>
          </mxGeometry>
        </mxCell>
        <mxCell id="hJyJAK8bZqe3dwNt4MRj-8" value="Current password is not matched" style="html=1;verticalAlign=bottom;endArrow=open;dashed=1;endSize=8;edgeStyle=elbowEdgeStyle;elbow=vertical;curved=0;rounded=0;" parent="1" target="hJyJAK8bZqe3dwNt4MRj-32" edge="1">
          <mxGeometry x="-0.0008" relative="1" as="geometry">
            <mxPoint x="509" y="840" as="targetPoint" />
            <Array as="points">
              <mxPoint x="699" y="840" />
              <mxPoint x="619" y="910" />
              <mxPoint x="599" y="900" />
              <mxPoint x="579" y="890" />
              <mxPoint x="559" y="880" />
              <mxPoint x="574" y="860" />
            </Array>
            <mxPoint as="offset" />
            <mxPoint x="689" y="840.5" as="sourcePoint" />
          </mxGeometry>
        </mxCell>
        <mxCell id="hJyJAK8bZqe3dwNt4MRj-9" value="Current Password is matched" style="html=1;verticalAlign=bottom;endArrow=open;dashed=1;endSize=8;edgeStyle=elbowEdgeStyle;elbow=vertical;curved=0;rounded=0;" parent="1" edge="1">
          <mxGeometry relative="1" as="geometry">
            <mxPoint x="504" y="780" as="targetPoint" />
            <Array as="points">
              <mxPoint x="579" y="780" />
              <mxPoint x="489" y="790" />
              <mxPoint x="529" y="830" />
              <mxPoint x="509" y="820" />
              <mxPoint x="519" y="820" />
            </Array>
            <mxPoint x="694" y="780" as="sourcePoint" />
          </mxGeometry>
        </mxCell>
        <mxCell id="hJyJAK8bZqe3dwNt4MRj-10" value="" style="endArrow=none;dashed=1;html=1;rounded=0;" parent="1" edge="1">
          <mxGeometry width="50" height="50" relative="1" as="geometry">
            <mxPoint x="118" y="1120" as="sourcePoint" />
            <mxPoint x="118.53" y="660" as="targetPoint" />
          </mxGeometry>
        </mxCell>
        <mxCell id="hJyJAK8bZqe3dwNt4MRj-11" value="Users" style="shape=umlActor;verticalLabelPosition=bottom;verticalAlign=top;html=1;outlineConnect=0;" parent="1" vertex="1">
          <mxGeometry x="109" y="605" width="20" height="40" as="geometry" />
        </mxCell>
        <mxCell id="hJyJAK8bZqe3dwNt4MRj-12" value="Alternative" style="shape=umlFrame;whiteSpace=wrap;html=1;pointerEvents=0;" parent="1" vertex="1">
          <mxGeometry x="79" y="754" width="670" height="116" as="geometry" />
        </mxCell>
        <mxCell id="hJyJAK8bZqe3dwNt4MRj-13" value="" style="line;strokeWidth=1;fillColor=none;align=left;verticalAlign=middle;spacingTop=-1;spacingLeft=3;spacingRight=3;rotatable=0;labelPosition=right;points=[];portConstraint=eastwest;strokeColor=inherit;" parent="1" vertex="1">
          <mxGeometry x="79" y="810" width="670" height="8" as="geometry" />
        </mxCell>
        <mxCell id="hJyJAK8bZqe3dwNt4MRj-14" value="&lt;b style=&quot;font-size: 16px;&quot;&gt;&lt;font style=&quot;font-size: 16px;&quot;&gt;Sequence Diagram - Change Password&lt;/font&gt;&lt;/b&gt;&lt;b style=&quot;border-color: var(--border-color); font-size: 16px;&quot;&gt;&amp;nbsp;&lt;/b&gt;" style="text;html=1;strokeColor=none;fillColor=none;align=center;verticalAlign=middle;whiteSpace=wrap;rounded=0;" parent="1" vertex="1">
          <mxGeometry x="119" y="550" width="610" height="30" as="geometry" />
        </mxCell>
        <mxCell id="hJyJAK8bZqe3dwNt4MRj-15" value="Request New Password" style="html=1;verticalAlign=bottom;endArrow=block;edgeStyle=elbowEdgeStyle;elbow=vertical;curved=0;rounded=0;" parent="1" edge="1">
          <mxGeometry width="80" relative="1" as="geometry">
            <mxPoint x="309" y="800" as="sourcePoint" />
            <mxPoint x="119" y="800" as="targetPoint" />
            <Array as="points">
              <mxPoint x="179" y="800" />
              <mxPoint x="239" y="810" />
            </Array>
          </mxGeometry>
        </mxCell>
        <mxCell id="hJyJAK8bZqe3dwNt4MRj-16" value="Display Entered Password is Incorrect" style="html=1;verticalAlign=bottom;endArrow=open;edgeStyle=elbowEdgeStyle;elbow=vertical;curved=0;rounded=0;dashed=1;endFill=0;" parent="1" edge="1">
          <mxGeometry width="80" relative="1" as="geometry">
            <mxPoint x="304" y="859.5" as="sourcePoint" />
            <mxPoint x="114" y="859.5" as="targetPoint" />
          </mxGeometry>
        </mxCell>
        <mxCell id="hJyJAK8bZqe3dwNt4MRj-17" value="&lt;font style=&quot;font-size: 10px;&quot;&gt;&lt;b&gt;[if currrent password correct]&lt;/b&gt;&lt;/font&gt;" style="text;html=1;strokeColor=none;fillColor=none;align=left;verticalAlign=middle;whiteSpace=wrap;rounded=0;" parent="1" vertex="1">
          <mxGeometry x="139" y="760" width="160" height="10" as="geometry" />
        </mxCell>
        <mxCell id="hJyJAK8bZqe3dwNt4MRj-18" value="&lt;font style=&quot;font-size: 10px;&quot;&gt;&lt;b&gt;[else]&lt;/b&gt;&lt;/font&gt;" style="text;html=1;strokeColor=none;fillColor=none;align=left;verticalAlign=middle;whiteSpace=wrap;rounded=0;" parent="1" vertex="1">
          <mxGeometry x="119" y="818" width="80" height="10" as="geometry" />
        </mxCell>
        <mxCell id="hJyJAK8bZqe3dwNt4MRj-19" value="Enter Current Password" style="html=1;verticalAlign=bottom;endArrow=blockThin;edgeStyle=elbowEdgeStyle;elbow=vertical;curved=0;rounded=0;endFill=1;" parent="1" edge="1">
          <mxGeometry relative="1" as="geometry">
            <mxPoint x="299" y="700" as="targetPoint" />
            <Array as="points">
              <mxPoint x="269" y="700" />
              <mxPoint x="229" y="700" />
            </Array>
            <mxPoint x="119" y="700" as="sourcePoint" />
            <mxPoint as="offset" />
          </mxGeometry>
        </mxCell>
        <mxCell id="hJyJAK8bZqe3dwNt4MRj-20" value="Enter New Password" style="html=1;verticalAlign=bottom;endArrow=blockThin;edgeStyle=elbowEdgeStyle;elbow=vertical;curved=0;rounded=0;endFill=1;" parent="1" edge="1">
          <mxGeometry relative="1" as="geometry">
            <mxPoint x="299" y="900" as="targetPoint" />
            <Array as="points">
              <mxPoint x="259" y="900" />
              <mxPoint x="219" y="900" />
            </Array>
            <mxPoint x="119" y="900" as="sourcePoint" />
            <mxPoint as="offset" />
          </mxGeometry>
        </mxCell>
        <mxCell id="hJyJAK8bZqe3dwNt4MRj-21" value="Password may not Save Successfully&amp;nbsp;&amp;nbsp;" style="html=1;verticalAlign=bottom;endArrow=open;dashed=1;endSize=8;edgeStyle=elbowEdgeStyle;elbow=vertical;curved=0;rounded=0;" parent="1" edge="1">
          <mxGeometry x="-0.0256" relative="1" as="geometry">
            <mxPoint x="504" y="1050" as="targetPoint" />
            <Array as="points">
              <mxPoint x="554" y="1050" />
              <mxPoint x="534" y="1040" />
              <mxPoint x="614" y="1030" />
              <mxPoint x="594" y="1060" />
              <mxPoint x="634" y="1080" />
              <mxPoint x="614" y="1070" />
              <mxPoint x="594" y="1060" />
              <mxPoint x="574" y="1050" />
              <mxPoint x="589" y="1030" />
            </Array>
            <mxPoint as="offset" />
            <mxPoint x="689" y="1050" as="sourcePoint" />
          </mxGeometry>
        </mxCell>
        <mxCell id="hJyJAK8bZqe3dwNt4MRj-22" value="Password Save successfully" style="html=1;verticalAlign=bottom;endArrow=open;dashed=1;endSize=8;edgeStyle=elbowEdgeStyle;elbow=vertical;curved=0;rounded=0;exitX=0.5;exitY=0.756;exitDx=0;exitDy=0;exitPerimeter=0;" parent="1" edge="1">
          <mxGeometry relative="1" as="geometry">
            <mxPoint x="509" y="990.04" as="targetPoint" />
            <Array as="points">
              <mxPoint x="559" y="990.04" />
              <mxPoint x="589" y="1010.04" />
              <mxPoint x="569" y="1000.04" />
              <mxPoint x="579" y="1000.04" />
            </Array>
            <mxPoint x="699" y="990" as="sourcePoint" />
          </mxGeometry>
        </mxCell>
        <mxCell id="hJyJAK8bZqe3dwNt4MRj-23" value="Alternative" style="shape=umlFrame;whiteSpace=wrap;html=1;pointerEvents=0;" parent="1" vertex="1">
          <mxGeometry x="79" y="960" width="670" height="120" as="geometry" />
        </mxCell>
        <mxCell id="hJyJAK8bZqe3dwNt4MRj-24" value="" style="line;strokeWidth=1;fillColor=none;align=left;verticalAlign=middle;spacingTop=-1;spacingLeft=3;spacingRight=3;rotatable=0;labelPosition=right;points=[];portConstraint=eastwest;strokeColor=inherit;" parent="1" vertex="1">
          <mxGeometry x="79" y="1017" width="670" height="8" as="geometry" />
        </mxCell>
        <mxCell id="hJyJAK8bZqe3dwNt4MRj-25" value="Display Password Reset Successfully" style="html=1;verticalAlign=bottom;endArrow=open;edgeStyle=elbowEdgeStyle;elbow=vertical;curved=0;rounded=0;endFill=0;dashed=1;" parent="1" edge="1">
          <mxGeometry width="80" relative="1" as="geometry">
            <mxPoint x="299" y="1010" as="sourcePoint" />
            <mxPoint x="119" y="1010" as="targetPoint" />
            <Array as="points">
              <mxPoint x="219" y="1010" />
            </Array>
          </mxGeometry>
        </mxCell>
        <mxCell id="hJyJAK8bZqe3dwNt4MRj-26" value="&lt;font style=&quot;font-size: 10px;&quot;&gt;&lt;b&gt;[if password saved]&lt;/b&gt;&lt;/font&gt;" style="text;html=1;strokeColor=none;fillColor=none;align=left;verticalAlign=middle;whiteSpace=wrap;rounded=0;" parent="1" vertex="1">
          <mxGeometry x="139" y="960" width="100" height="10" as="geometry" />
        </mxCell>
        <mxCell id="hJyJAK8bZqe3dwNt4MRj-27" value="&lt;font style=&quot;font-size: 10px;&quot;&gt;&lt;b&gt;[else]&lt;/b&gt;&lt;/font&gt;" style="text;html=1;strokeColor=none;fillColor=none;align=left;verticalAlign=middle;whiteSpace=wrap;rounded=0;" parent="1" vertex="1">
          <mxGeometry x="119" y="1025" width="80" height="10" as="geometry" />
        </mxCell>
        <mxCell id="hJyJAK8bZqe3dwNt4MRj-28" value="New Password is Saved &lt;br&gt;and Validated" style="html=1;verticalAlign=bottom;endArrow=blockThin;endSize=8;edgeStyle=elbowEdgeStyle;elbow=vertical;curved=0;rounded=0;endFill=1;" parent="1" edge="1">
          <mxGeometry relative="1" as="geometry">
            <mxPoint x="698.5" y="940" as="targetPoint" />
            <Array as="points">
              <mxPoint x="509" y="940" />
              <mxPoint x="469" y="940" />
            </Array>
            <mxPoint x="499" y="940" as="sourcePoint" />
            <mxPoint as="offset" />
          </mxGeometry>
        </mxCell>
        <mxCell id="hJyJAK8bZqe3dwNt4MRj-29" value="Display Error Message" style="html=1;verticalAlign=bottom;endArrow=open;edgeStyle=elbowEdgeStyle;elbow=vertical;curved=0;rounded=0;dashed=1;endFill=0;" parent="1" edge="1">
          <mxGeometry width="80" relative="1" as="geometry">
            <mxPoint x="304" y="1070" as="sourcePoint" />
            <mxPoint x="114" y="1070" as="targetPoint" />
          </mxGeometry>
        </mxCell>
        <mxCell id="hJyJAK8bZqe3dwNt4MRj-30" value="Entered Password" style="html=1;verticalAlign=bottom;endArrow=block;edgeStyle=elbowEdgeStyle;elbow=vertical;curved=0;rounded=0;" parent="1" target="hJyJAK8bZqe3dwNt4MRj-32" edge="1">
          <mxGeometry x="0.0286" relative="1" as="geometry">
            <mxPoint x="314" y="720" as="sourcePoint" />
            <Array as="points">
              <mxPoint x="464" y="720" />
              <mxPoint x="420" y="740" />
              <mxPoint x="400" y="770" />
            </Array>
            <mxPoint x="489" y="720" as="targetPoint" />
            <mxPoint as="offset" />
          </mxGeometry>
        </mxCell>
        <mxCell id="hJyJAK8bZqe3dwNt4MRj-31" value="System" style="shape=umlLifeline;perimeter=lifelinePerimeter;whiteSpace=wrap;html=1;container=0;dropTarget=0;collapsible=0;recursiveResize=0;outlineConnect=0;portConstraint=eastwest;newEdgeStyle={&quot;edgeStyle&quot;:&quot;elbowEdgeStyle&quot;,&quot;elbow&quot;:&quot;vertical&quot;,&quot;curved&quot;:0,&quot;rounded&quot;:0};" parent="1" vertex="1">
          <mxGeometry x="449" y="600" width="100" height="550" as="geometry" />
        </mxCell>
        <mxCell id="hJyJAK8bZqe3dwNt4MRj-32" value="" style="html=1;points=[];perimeter=orthogonalPerimeter;outlineConnect=0;targetShapes=umlLifeline;portConstraint=eastwest;newEdgeStyle={&quot;edgeStyle&quot;:&quot;elbowEdgeStyle&quot;,&quot;elbow&quot;:&quot;vertical&quot;,&quot;curved&quot;:0,&quot;rounded&quot;:0};" parent="hJyJAK8bZqe3dwNt4MRj-31" vertex="1">
          <mxGeometry x="45" y="70" width="10" height="440" as="geometry" />
        </mxCell>
        <mxCell id="hJyJAK8bZqe3dwNt4MRj-33" value="" style="shape=umlDestroy;whiteSpace=wrap;html=1;strokeWidth=3;targetShapes=umlLifeline;" parent="hJyJAK8bZqe3dwNt4MRj-31" vertex="1">
          <mxGeometry x="40" y="530" width="20" height="20" as="geometry" />
        </mxCell>
        <mxCell id="hJyJAK8bZqe3dwNt4MRj-34" value="Matched Password" style="html=1;verticalAlign=bottom;endArrow=open;dashed=1;endSize=8;edgeStyle=elbowEdgeStyle;elbow=vertical;curved=0;rounded=0;" parent="1" edge="1">
          <mxGeometry x="-0.027" relative="1" as="geometry">
            <mxPoint x="314" y="790" as="targetPoint" />
            <Array as="points">
              <mxPoint x="389" y="790" />
              <mxPoint x="299" y="800" />
              <mxPoint x="339" y="840" />
              <mxPoint x="319" y="830" />
              <mxPoint x="329" y="830" />
            </Array>
            <mxPoint x="489" y="790" as="sourcePoint" />
            <mxPoint as="offset" />
          </mxGeometry>
        </mxCell>
        <mxCell id="hJyJAK8bZqe3dwNt4MRj-35" value="Unmatched Password" style="html=1;verticalAlign=bottom;endArrow=open;dashed=1;endSize=8;edgeStyle=elbowEdgeStyle;elbow=vertical;curved=0;rounded=0;" parent="1" edge="1">
          <mxGeometry x="-0.027" relative="1" as="geometry">
            <mxPoint x="314" y="849.5" as="targetPoint" />
            <Array as="points">
              <mxPoint x="389" y="849.5" />
              <mxPoint x="299" y="859.5" />
              <mxPoint x="339" y="899.5" />
              <mxPoint x="319" y="889.5" />
              <mxPoint x="329" y="889.5" />
            </Array>
            <mxPoint x="489" y="850" as="sourcePoint" />
            <mxPoint as="offset" />
          </mxGeometry>
        </mxCell>
        <mxCell id="hJyJAK8bZqe3dwNt4MRj-36" value="Entered New Password" style="html=1;verticalAlign=bottom;endArrow=block;edgeStyle=elbowEdgeStyle;elbow=vertical;curved=0;rounded=0;" parent="1" edge="1">
          <mxGeometry x="0.0286" relative="1" as="geometry">
            <mxPoint x="314" y="920" as="sourcePoint" />
            <Array as="points">
              <mxPoint x="464" y="920" />
              <mxPoint x="420" y="940" />
              <mxPoint x="400" y="970" />
            </Array>
            <mxPoint x="494" y="920" as="targetPoint" />
            <mxPoint as="offset" />
          </mxGeometry>
        </mxCell>
        <mxCell id="hJyJAK8bZqe3dwNt4MRj-37" value="Password Saved" style="html=1;verticalAlign=bottom;endArrow=open;dashed=1;endSize=8;edgeStyle=elbowEdgeStyle;elbow=vertical;curved=0;rounded=0;exitX=0.5;exitY=0.756;exitDx=0;exitDy=0;exitPerimeter=0;" parent="1" edge="1">
          <mxGeometry relative="1" as="geometry">
            <mxPoint x="314" y="1000" as="targetPoint" />
            <Array as="points">
              <mxPoint x="359" y="1000.04" />
              <mxPoint x="389" y="1020.04" />
              <mxPoint x="369" y="1010.04" />
              <mxPoint x="379" y="1010.04" />
            </Array>
            <mxPoint x="499" y="1000" as="sourcePoint" />
          </mxGeometry>
        </mxCell>
        <mxCell id="hJyJAK8bZqe3dwNt4MRj-38" value="Password not Saved" style="html=1;verticalAlign=bottom;endArrow=open;dashed=1;endSize=8;edgeStyle=elbowEdgeStyle;elbow=vertical;curved=0;rounded=0;exitX=0.5;exitY=0.756;exitDx=0;exitDy=0;exitPerimeter=0;" parent="1" edge="1">
          <mxGeometry relative="1" as="geometry">
            <mxPoint x="314" y="1060" as="targetPoint" />
            <Array as="points">
              <mxPoint x="359" y="1060.04" />
              <mxPoint x="389" y="1080.04" />
              <mxPoint x="369" y="1070.04" />
              <mxPoint x="379" y="1070.04" />
            </Array>
            <mxPoint x="499" y="1060" as="sourcePoint" />
          </mxGeometry>
        </mxCell>
      </root>
    </mxGraphModel>
  </diagram>
  <diagram id="rpnD0Omjy8bEKe9oHcRl" name="2">
    <mxGraphModel dx="1032" dy="580" grid="1" gridSize="10" guides="1" tooltips="1" connect="1" arrows="1" fold="1" page="1" pageScale="1" pageWidth="827" pageHeight="1169" math="0" shadow="0">
      <root>
        <mxCell id="0" />
        <mxCell id="1" parent="0" />
        <mxCell id="4rZNP_-iR621AZJwCuBH-1" value="&lt;b style=&quot;border-color: var(--border-color); font-size: 16px;&quot;&gt;&lt;font style=&quot;border-color: var(--border-color);&quot;&gt;Sequence Diagram - Forgot Password&lt;/font&gt;&lt;/b&gt;" style="text;html=1;strokeColor=none;fillColor=none;align=center;verticalAlign=middle;whiteSpace=wrap;rounded=0;" parent="1" vertex="1">
          <mxGeometry x="125" y="9.5" width="590" height="30" as="geometry" />
        </mxCell>
        <mxCell id="BD8dvzNYRVmhWyHGP17k-1" value="Ui" style="shape=umlLifeline;perimeter=lifelinePerimeter;whiteSpace=wrap;html=1;container=0;dropTarget=0;collapsible=0;recursiveResize=0;outlineConnect=0;portConstraint=eastwest;newEdgeStyle={&quot;edgeStyle&quot;:&quot;elbowEdgeStyle&quot;,&quot;elbow&quot;:&quot;vertical&quot;,&quot;curved&quot;:0,&quot;rounded&quot;:0};" parent="1" vertex="1">
          <mxGeometry x="220" y="60" width="100" height="860" as="geometry" />
        </mxCell>
        <mxCell id="BD8dvzNYRVmhWyHGP17k-2" value="" style="html=1;points=[];perimeter=orthogonalPerimeter;outlineConnect=0;targetShapes=umlLifeline;portConstraint=eastwest;newEdgeStyle={&quot;edgeStyle&quot;:&quot;elbowEdgeStyle&quot;,&quot;elbow&quot;:&quot;vertical&quot;,&quot;curved&quot;:0,&quot;rounded&quot;:0};" parent="BD8dvzNYRVmhWyHGP17k-1" vertex="1">
          <mxGeometry x="45" y="70" width="10" height="740" as="geometry" />
        </mxCell>
        <mxCell id="BD8dvzNYRVmhWyHGP17k-3" value="" style="shape=umlDestroy;whiteSpace=wrap;html=1;strokeWidth=3;targetShapes=umlLifeline;" parent="BD8dvzNYRVmhWyHGP17k-1" vertex="1">
          <mxGeometry x="42.5" y="840" width="15" height="20" as="geometry" />
        </mxCell>
        <mxCell id="BD8dvzNYRVmhWyHGP17k-4" value="Database" style="shape=umlLifeline;perimeter=lifelinePerimeter;whiteSpace=wrap;html=1;container=0;dropTarget=0;collapsible=0;recursiveResize=0;outlineConnect=0;portConstraint=eastwest;newEdgeStyle={&quot;edgeStyle&quot;:&quot;elbowEdgeStyle&quot;,&quot;elbow&quot;:&quot;vertical&quot;,&quot;curved&quot;:0,&quot;rounded&quot;:0};" parent="1" vertex="1">
          <mxGeometry x="570" y="60" width="100" height="860" as="geometry" />
        </mxCell>
        <mxCell id="BD8dvzNYRVmhWyHGP17k-5" value="" style="html=1;points=[];perimeter=orthogonalPerimeter;outlineConnect=0;targetShapes=umlLifeline;portConstraint=eastwest;newEdgeStyle={&quot;edgeStyle&quot;:&quot;elbowEdgeStyle&quot;,&quot;elbow&quot;:&quot;vertical&quot;,&quot;curved&quot;:0,&quot;rounded&quot;:0};" parent="BD8dvzNYRVmhWyHGP17k-4" vertex="1">
          <mxGeometry x="45" y="70" width="10" height="740" as="geometry" />
        </mxCell>
        <mxCell id="BD8dvzNYRVmhWyHGP17k-6" value="" style="shape=umlDestroy;whiteSpace=wrap;html=1;strokeWidth=3;targetShapes=umlLifeline;" parent="BD8dvzNYRVmhWyHGP17k-4" vertex="1">
          <mxGeometry x="42.5" y="840" width="15" height="20" as="geometry" />
        </mxCell>
        <mxCell id="BD8dvzNYRVmhWyHGP17k-7" value="Retrieve User Account&amp;nbsp;" style="html=1;verticalAlign=bottom;endArrow=block;edgeStyle=elbowEdgeStyle;elbow=vertical;curved=0;rounded=0;" parent="1" edge="1">
          <mxGeometry x="-0.0556" relative="1" as="geometry">
            <mxPoint x="450" y="190" as="sourcePoint" />
            <Array as="points">
              <mxPoint x="597.5" y="190" />
              <mxPoint x="567.5" y="200" />
              <mxPoint x="517.5" y="170" />
              <mxPoint x="527.5" y="200" />
              <mxPoint x="557.5" y="210" />
              <mxPoint x="537.5" y="190" />
            </Array>
            <mxPoint as="offset" />
            <mxPoint x="612.5" y="190" as="targetPoint" />
          </mxGeometry>
        </mxCell>
        <mxCell id="BD8dvzNYRVmhWyHGP17k-8" value="" style="endArrow=none;dashed=1;html=1;rounded=0;" parent="1" edge="1">
          <mxGeometry width="50" height="50" relative="1" as="geometry">
            <mxPoint x="80" y="920" as="sourcePoint" />
            <mxPoint x="80" y="109.5" as="targetPoint" />
          </mxGeometry>
        </mxCell>
        <mxCell id="BD8dvzNYRVmhWyHGP17k-9" value="Users" style="shape=umlActor;verticalLabelPosition=bottom;verticalAlign=top;html=1;outlineConnect=0;" parent="1" vertex="1">
          <mxGeometry x="80" y="39.5" width="20" height="40" as="geometry" />
        </mxCell>
        <mxCell id="BD8dvzNYRVmhWyHGP17k-10" value="Insert Your Email Id" style="html=1;verticalAlign=bottom;endArrow=blockThin;edgeStyle=elbowEdgeStyle;elbow=vertical;curved=0;rounded=0;endFill=1;" parent="1" target="BD8dvzNYRVmhWyHGP17k-2" edge="1">
          <mxGeometry relative="1" as="geometry">
            <mxPoint x="260" y="150" as="targetPoint" />
            <Array as="points">
              <mxPoint x="210" y="150" />
              <mxPoint x="170" y="150" />
            </Array>
            <mxPoint x="80" y="150" as="sourcePoint" />
            <mxPoint as="offset" />
          </mxGeometry>
        </mxCell>
        <mxCell id="BD8dvzNYRVmhWyHGP17k-12" value="Entered Password Reset &lt;br&gt;code&amp;nbsp;is unmatched" style="html=1;verticalAlign=bottom;endArrow=open;dashed=1;endSize=8;edgeStyle=elbowEdgeStyle;elbow=vertical;curved=0;rounded=0;" parent="1" source="BD8dvzNYRVmhWyHGP17k-30" edge="1">
          <mxGeometry x="0.0857" relative="1" as="geometry">
            <mxPoint x="280" y="520" as="targetPoint" />
            <Array as="points">
              <mxPoint x="420" y="520" />
              <mxPoint x="380" y="510" />
              <mxPoint x="360" y="540" />
              <mxPoint x="400" y="560" />
              <mxPoint x="380" y="550" />
              <mxPoint x="360" y="540" />
              <mxPoint x="340" y="530" />
              <mxPoint x="355" y="510" />
            </Array>
            <mxPoint as="offset" />
            <mxPoint x="455" y="520" as="sourcePoint" />
          </mxGeometry>
        </mxCell>
        <mxCell id="BD8dvzNYRVmhWyHGP17k-13" value="Entered Password Reset &lt;br&gt;code is matched" style="html=1;verticalAlign=bottom;endArrow=open;dashed=1;endSize=8;edgeStyle=elbowEdgeStyle;elbow=vertical;curved=0;rounded=0;" parent="1" edge="1">
          <mxGeometry x="0.0857" relative="1" as="geometry">
            <mxPoint x="280" y="470" as="targetPoint" />
            <Array as="points">
              <mxPoint x="325" y="470" />
              <mxPoint x="355" y="490" />
              <mxPoint x="335" y="480" />
              <mxPoint x="345" y="480" />
            </Array>
            <mxPoint x="440" y="470" as="sourcePoint" />
            <mxPoint as="offset" />
          </mxGeometry>
        </mxCell>
        <mxCell id="BD8dvzNYRVmhWyHGP17k-14" value="Alternative" style="shape=umlFrame;whiteSpace=wrap;html=1;pointerEvents=0;" parent="1" vertex="1">
          <mxGeometry x="30" y="435" width="450" height="110" as="geometry" />
        </mxCell>
        <mxCell id="BD8dvzNYRVmhWyHGP17k-15" value="" style="line;strokeWidth=1;fillColor=none;align=left;verticalAlign=middle;spacingTop=-1;spacingLeft=3;spacingRight=3;rotatable=0;labelPosition=right;points=[];portConstraint=eastwest;strokeColor=inherit;" parent="1" vertex="1">
          <mxGeometry x="50" y="485" width="430" height="8" as="geometry" />
        </mxCell>
        <mxCell id="BD8dvzNYRVmhWyHGP17k-16" value="Request new Password" style="html=1;verticalAlign=bottom;endArrow=block;edgeStyle=elbowEdgeStyle;elbow=vertical;curved=0;rounded=0;exitX=0.5;exitY=0.551;exitDx=0;exitDy=0;exitPerimeter=0;" parent="1" edge="1">
          <mxGeometry width="80" relative="1" as="geometry">
            <mxPoint x="260" y="480.01" as="sourcePoint" />
            <mxPoint x="80" y="480" as="targetPoint" />
            <Array as="points">
              <mxPoint x="150" y="480" />
            </Array>
          </mxGeometry>
        </mxCell>
        <mxCell id="BD8dvzNYRVmhWyHGP17k-17" value="Display Wrong Verification code" style="html=1;verticalAlign=bottom;endArrow=block;edgeStyle=elbowEdgeStyle;elbow=vertical;curved=0;rounded=0;exitX=0.5;exitY=0.627;exitDx=0;exitDy=0;exitPerimeter=0;dashed=1;" parent="1" edge="1">
          <mxGeometry width="80" relative="1" as="geometry">
            <mxPoint x="260" y="530" as="sourcePoint" />
            <mxPoint x="80" y="530.23" as="targetPoint" />
          </mxGeometry>
        </mxCell>
        <mxCell id="BD8dvzNYRVmhWyHGP17k-18" value="&lt;font style=&quot;font-size: 10px;&quot;&gt;&lt;b&gt;[if code matched]&lt;/b&gt;&lt;/font&gt;" style="text;html=1;strokeColor=none;fillColor=none;align=left;verticalAlign=middle;whiteSpace=wrap;rounded=0;" parent="1" vertex="1">
          <mxGeometry x="110" y="435" width="90" height="10" as="geometry" />
        </mxCell>
        <mxCell id="BD8dvzNYRVmhWyHGP17k-19" value="&lt;font style=&quot;font-size: 10px;&quot;&gt;&lt;b&gt;[else]&lt;/b&gt;&lt;/font&gt;" style="text;html=1;strokeColor=none;fillColor=none;align=left;verticalAlign=middle;whiteSpace=wrap;rounded=0;" parent="1" vertex="1">
          <mxGeometry x="90" y="493" width="80" height="10" as="geometry" />
        </mxCell>
        <mxCell id="BD8dvzNYRVmhWyHGP17k-20" value="Password may not &lt;br&gt;Save Successfully&amp;nbsp;&amp;nbsp;" style="html=1;verticalAlign=bottom;endArrow=open;dashed=1;endSize=8;edgeStyle=elbowEdgeStyle;elbow=vertical;curved=0;rounded=0;" parent="1" edge="1">
          <mxGeometry x="0.0588" relative="1" as="geometry">
            <mxPoint x="450" y="780" as="targetPoint" />
            <Array as="points">
              <mxPoint x="510" y="780" />
              <mxPoint x="490" y="770" />
              <mxPoint x="570" y="760" />
              <mxPoint x="550" y="790" />
              <mxPoint x="590" y="810" />
              <mxPoint x="570" y="800" />
              <mxPoint x="550" y="790" />
              <mxPoint x="530" y="780" />
              <mxPoint x="545" y="760" />
            </Array>
            <mxPoint as="offset" />
            <mxPoint x="610" y="780" as="sourcePoint" />
          </mxGeometry>
        </mxCell>
        <mxCell id="BD8dvzNYRVmhWyHGP17k-21" value="Password Save successfully" style="html=1;verticalAlign=bottom;endArrow=open;dashed=1;endSize=8;edgeStyle=elbowEdgeStyle;elbow=vertical;curved=0;rounded=0;exitX=0.5;exitY=0.941;exitDx=0;exitDy=0;exitPerimeter=0;" parent="1" edge="1">
          <mxGeometry x="0.0005" relative="1" as="geometry">
            <mxPoint x="450" y="700" as="targetPoint" />
            <Array as="points">
              <mxPoint x="325" y="700.09" />
              <mxPoint x="355" y="720.09" />
              <mxPoint x="335" y="710.09" />
              <mxPoint x="345" y="710.09" />
            </Array>
            <mxPoint x="615" y="699.9999999999999" as="sourcePoint" />
            <mxPoint as="offset" />
          </mxGeometry>
        </mxCell>
        <mxCell id="BD8dvzNYRVmhWyHGP17k-22" value="Alternative" style="shape=umlFrame;whiteSpace=wrap;html=1;pointerEvents=0;" parent="1" vertex="1">
          <mxGeometry x="30" y="670" width="640" height="150" as="geometry" />
        </mxCell>
        <mxCell id="BD8dvzNYRVmhWyHGP17k-23" value="" style="line;strokeWidth=1;fillColor=none;align=left;verticalAlign=middle;spacingTop=-1;spacingLeft=3;spacingRight=3;rotatable=0;labelPosition=right;points=[];portConstraint=eastwest;strokeColor=inherit;" parent="1" vertex="1">
          <mxGeometry x="30" y="742" width="640" height="8" as="geometry" />
        </mxCell>
        <mxCell id="BD8dvzNYRVmhWyHGP17k-24" value="Display Password Reset Successfully" style="html=1;verticalAlign=bottom;endArrow=block;edgeStyle=elbowEdgeStyle;elbow=vertical;curved=0;rounded=0;dashed=1;" parent="1" source="BD8dvzNYRVmhWyHGP17k-2" edge="1">
          <mxGeometry x="0.027" width="80" relative="1" as="geometry">
            <mxPoint x="250" y="730" as="sourcePoint" />
            <mxPoint x="80" y="730" as="targetPoint" />
            <Array as="points">
              <mxPoint x="160" y="730" />
            </Array>
            <mxPoint as="offset" />
          </mxGeometry>
        </mxCell>
        <mxCell id="BD8dvzNYRVmhWyHGP17k-25" value="&lt;font style=&quot;font-size: 10px;&quot;&gt;&lt;b&gt;[if password saved]&lt;/b&gt;&lt;/font&gt;" style="text;html=1;strokeColor=none;fillColor=none;align=left;verticalAlign=middle;whiteSpace=wrap;rounded=0;" parent="1" vertex="1">
          <mxGeometry x="120" y="670" width="100" height="10" as="geometry" />
        </mxCell>
        <mxCell id="BD8dvzNYRVmhWyHGP17k-26" value="&lt;font style=&quot;font-size: 10px;&quot;&gt;&lt;b&gt;[else]&lt;/b&gt;&lt;/font&gt;" style="text;html=1;strokeColor=none;fillColor=none;align=left;verticalAlign=middle;whiteSpace=wrap;rounded=0;" parent="1" vertex="1">
          <mxGeometry x="80" y="750" width="80" height="10" as="geometry" />
        </mxCell>
        <mxCell id="BD8dvzNYRVmhWyHGP17k-27" value="Enter new Password" style="html=1;verticalAlign=bottom;endArrow=blockThin;endSize=8;edgeStyle=elbowEdgeStyle;elbow=vertical;curved=0;rounded=0;endFill=1;" parent="1" edge="1">
          <mxGeometry relative="1" as="geometry">
            <mxPoint x="260" y="584" as="targetPoint" />
            <Array as="points">
              <mxPoint x="210" y="584" />
              <mxPoint x="170" y="584" />
            </Array>
            <mxPoint x="90" y="584" as="sourcePoint" />
            <mxPoint as="offset" />
          </mxGeometry>
        </mxCell>
        <mxCell id="BD8dvzNYRVmhWyHGP17k-28" value="New Password is Saved &lt;br&gt;and Validated" style="html=1;verticalAlign=bottom;endArrow=blockThin;endSize=8;edgeStyle=elbowEdgeStyle;elbow=vertical;curved=0;rounded=0;endFill=1;" parent="1" edge="1">
          <mxGeometry x="-0.0857" relative="1" as="geometry">
            <mxPoint x="610" y="640" as="targetPoint" />
            <Array as="points">
              <mxPoint x="570" y="640" />
              <mxPoint x="530" y="660" />
            </Array>
            <mxPoint x="450" y="640" as="sourcePoint" />
            <mxPoint as="offset" />
          </mxGeometry>
        </mxCell>
        <mxCell id="BD8dvzNYRVmhWyHGP17k-29" value="Display Password may not&amp;nbsp;&lt;br&gt;reset successfully" style="html=1;verticalAlign=bottom;endArrow=block;edgeStyle=elbowEdgeStyle;elbow=vertical;curved=0;rounded=0;dashed=1;" parent="1" edge="1">
          <mxGeometry width="80" relative="1" as="geometry">
            <mxPoint x="265" y="810" as="sourcePoint" />
            <mxPoint x="80" y="810" as="targetPoint" />
          </mxGeometry>
        </mxCell>
        <mxCell id="BD8dvzNYRVmhWyHGP17k-30" value="System" style="shape=umlLifeline;perimeter=lifelinePerimeter;whiteSpace=wrap;html=1;container=0;dropTarget=0;collapsible=0;recursiveResize=0;outlineConnect=0;portConstraint=eastwest;newEdgeStyle={&quot;edgeStyle&quot;:&quot;elbowEdgeStyle&quot;,&quot;elbow&quot;:&quot;vertical&quot;,&quot;curved&quot;:0,&quot;rounded&quot;:0};" parent="1" vertex="1">
          <mxGeometry x="392.5" y="60" width="100" height="860" as="geometry" />
        </mxCell>
        <mxCell id="BD8dvzNYRVmhWyHGP17k-31" value="" style="html=1;points=[];perimeter=orthogonalPerimeter;outlineConnect=0;targetShapes=umlLifeline;portConstraint=eastwest;newEdgeStyle={&quot;edgeStyle&quot;:&quot;elbowEdgeStyle&quot;,&quot;elbow&quot;:&quot;vertical&quot;,&quot;curved&quot;:0,&quot;rounded&quot;:0};" parent="BD8dvzNYRVmhWyHGP17k-30" vertex="1">
          <mxGeometry x="45" y="70" width="10" height="740" as="geometry" />
        </mxCell>
        <mxCell id="BD8dvzNYRVmhWyHGP17k-32" value="" style="shape=umlDestroy;whiteSpace=wrap;html=1;strokeWidth=3;targetShapes=umlLifeline;" parent="BD8dvzNYRVmhWyHGP17k-30" vertex="1">
          <mxGeometry x="42.5" y="840" width="15" height="20" as="geometry" />
        </mxCell>
        <mxCell id="BD8dvzNYRVmhWyHGP17k-33" value="Provide User Account Information" style="html=1;verticalAlign=bottom;endArrow=block;edgeStyle=elbowEdgeStyle;elbow=vertical;curved=0;rounded=0;" parent="1" edge="1">
          <mxGeometry x="-0.0556" width="80" relative="1" as="geometry">
            <mxPoint x="617.5" y="210" as="sourcePoint" />
            <mxPoint x="450" y="210" as="targetPoint" />
            <Array as="points">
              <mxPoint x="592.5" y="210" />
              <mxPoint x="672.5" y="230" />
              <mxPoint x="627.5" y="220" />
            </Array>
            <mxPoint as="offset" />
          </mxGeometry>
        </mxCell>
        <mxCell id="BD8dvzNYRVmhWyHGP17k-34" value="Send Password Reset Code" style="html=1;verticalAlign=bottom;endArrow=blockThin;edgeStyle=elbowEdgeStyle;elbow=vertical;curved=0;rounded=0;endFill=1;" parent="1" target="BD8dvzNYRVmhWyHGP17k-38" edge="1">
          <mxGeometry x="-0.4672" relative="1" as="geometry">
            <mxPoint x="791.25" y="240" as="targetPoint" />
            <Array as="points">
              <mxPoint x="561.5" y="240" />
              <mxPoint x="571.5" y="240" />
            </Array>
            <mxPoint x="448.75" y="240" as="sourcePoint" />
            <mxPoint as="offset" />
          </mxGeometry>
        </mxCell>
        <mxCell id="BD8dvzNYRVmhWyHGP17k-35" value="Password Reset Code Sent" style="html=1;verticalAlign=bottom;endArrow=block;edgeStyle=elbowEdgeStyle;elbow=vertical;curved=0;rounded=0;dashed=1;" parent="1" edge="1">
          <mxGeometry x="0.0769" width="80" relative="1" as="geometry">
            <mxPoint x="436.25" y="290" as="sourcePoint" />
            <mxPoint x="273.75" y="290" as="targetPoint" />
            <Array as="points">
              <mxPoint x="293.75" y="290" />
            </Array>
            <mxPoint as="offset" />
          </mxGeometry>
        </mxCell>
        <mxCell id="BD8dvzNYRVmhWyHGP17k-36" value="Insert Password Reset Code" style="html=1;verticalAlign=bottom;endArrow=blockThin;edgeStyle=elbowEdgeStyle;elbow=vertical;curved=0;rounded=0;endFill=1;" parent="1" edge="1">
          <mxGeometry relative="1" as="geometry">
            <mxPoint x="260" y="400" as="targetPoint" />
            <Array as="points">
              <mxPoint x="210" y="400" />
              <mxPoint x="170" y="400" />
            </Array>
            <mxPoint x="80" y="400" as="sourcePoint" />
            <mxPoint as="offset" />
          </mxGeometry>
        </mxCell>
        <mxCell id="BD8dvzNYRVmhWyHGP17k-37" value="Email Service" style="shape=umlLifeline;perimeter=lifelinePerimeter;whiteSpace=wrap;html=1;container=0;dropTarget=0;collapsible=0;recursiveResize=0;outlineConnect=0;portConstraint=eastwest;newEdgeStyle={&quot;edgeStyle&quot;:&quot;elbowEdgeStyle&quot;,&quot;elbow&quot;:&quot;vertical&quot;,&quot;curved&quot;:0,&quot;rounded&quot;:0};" parent="1" vertex="1">
          <mxGeometry x="720" y="60" width="100" height="860" as="geometry" />
        </mxCell>
        <mxCell id="BD8dvzNYRVmhWyHGP17k-38" value="" style="html=1;points=[];perimeter=orthogonalPerimeter;outlineConnect=0;targetShapes=umlLifeline;portConstraint=eastwest;newEdgeStyle={&quot;edgeStyle&quot;:&quot;elbowEdgeStyle&quot;,&quot;elbow&quot;:&quot;vertical&quot;,&quot;curved&quot;:0,&quot;rounded&quot;:0};" parent="BD8dvzNYRVmhWyHGP17k-37" vertex="1">
          <mxGeometry x="45" y="70" width="10" height="740" as="geometry" />
        </mxCell>
        <mxCell id="BD8dvzNYRVmhWyHGP17k-39" value="" style="shape=umlDestroy;whiteSpace=wrap;html=1;strokeWidth=3;targetShapes=umlLifeline;" parent="BD8dvzNYRVmhWyHGP17k-37" vertex="1">
          <mxGeometry x="42.5" y="840" width="15" height="20" as="geometry" />
        </mxCell>
        <mxCell id="BD8dvzNYRVmhWyHGP17k-40" value="Sent Forgot Password Request" style="html=1;verticalAlign=bottom;endArrow=blockThin;edgeStyle=elbowEdgeStyle;elbow=vertical;curved=0;rounded=0;endFill=1;" parent="1" edge="1">
          <mxGeometry relative="1" as="geometry">
            <mxPoint x="440" y="170" as="targetPoint" />
            <Array as="points">
              <mxPoint x="392.5" y="170" />
              <mxPoint x="352.5" y="170" />
            </Array>
            <mxPoint x="272.5" y="170" as="sourcePoint" />
            <mxPoint as="offset" />
          </mxGeometry>
        </mxCell>
        <mxCell id="BD8dvzNYRVmhWyHGP17k-41" value="Password Reset Code" style="html=1;verticalAlign=bottom;endArrow=none;edgeStyle=elbowEdgeStyle;elbow=vertical;curved=0;rounded=0;endFill=0;startArrow=classic;startFill=1;" parent="1" edge="1">
          <mxGeometry x="-0.4672" relative="1" as="geometry">
            <mxPoint x="760" y="260" as="targetPoint" />
            <Array as="points">
              <mxPoint x="561.5" y="260" />
              <mxPoint x="571.5" y="260" />
            </Array>
            <mxPoint x="448.75" y="260" as="sourcePoint" />
            <mxPoint as="offset" />
          </mxGeometry>
        </mxCell>
        <mxCell id="BD8dvzNYRVmhWyHGP17k-42" value="Alternative" style="shape=umlFrame;whiteSpace=wrap;html=1;pointerEvents=0;" parent="1" vertex="1">
          <mxGeometry x="30" y="270" width="450" height="100" as="geometry" />
        </mxCell>
        <mxCell id="BD8dvzNYRVmhWyHGP17k-43" value="" style="line;strokeWidth=1;fillColor=none;align=left;verticalAlign=middle;spacingTop=-1;spacingLeft=3;spacingRight=3;rotatable=0;labelPosition=right;points=[];portConstraint=eastwest;strokeColor=inherit;" parent="1" vertex="1">
          <mxGeometry x="30" y="316" width="450" height="8" as="geometry" />
        </mxCell>
        <mxCell id="BD8dvzNYRVmhWyHGP17k-44" value="Password Reset Code not Sent" style="html=1;verticalAlign=bottom;endArrow=block;edgeStyle=elbowEdgeStyle;elbow=vertical;curved=0;rounded=0;dashed=1;" parent="1" edge="1">
          <mxGeometry x="-0.0615" width="80" relative="1" as="geometry">
            <mxPoint x="436.25" y="340" as="sourcePoint" />
            <mxPoint x="273.75" y="340" as="targetPoint" />
            <Array as="points">
              <mxPoint x="293.75" y="340" />
            </Array>
            <mxPoint as="offset" />
          </mxGeometry>
        </mxCell>
        <mxCell id="BD8dvzNYRVmhWyHGP17k-45" value="Display Password Reset Code Sent" style="html=1;verticalAlign=bottom;endArrow=block;edgeStyle=elbowEdgeStyle;elbow=vertical;curved=0;rounded=0;dashed=1;" parent="1" source="BD8dvzNYRVmhWyHGP17k-2" edge="1">
          <mxGeometry x="-0.036" width="80" relative="1" as="geometry">
            <mxPoint x="253.75" y="310" as="sourcePoint" />
            <mxPoint x="80" y="310" as="targetPoint" />
            <Array as="points">
              <mxPoint x="100" y="310" />
            </Array>
            <mxPoint as="offset" />
          </mxGeometry>
        </mxCell>
        <mxCell id="BD8dvzNYRVmhWyHGP17k-46" value="Display Password Reset &lt;br&gt;Code not Sent" style="html=1;verticalAlign=bottom;endArrow=block;edgeStyle=elbowEdgeStyle;elbow=vertical;curved=0;rounded=0;exitX=0.5;exitY=0.311;exitDx=0;exitDy=0;exitPerimeter=0;dashed=1;" parent="1" source="BD8dvzNYRVmhWyHGP17k-2" edge="1">
          <mxGeometry x="0.0769" width="80" relative="1" as="geometry">
            <mxPoint x="253.75" y="360" as="sourcePoint" />
            <mxPoint x="80" y="360" as="targetPoint" />
            <Array as="points">
              <mxPoint x="100" y="360" />
            </Array>
            <mxPoint as="offset" />
          </mxGeometry>
        </mxCell>
        <mxCell id="BD8dvzNYRVmhWyHGP17k-47" value="Verify Password Reset Code" style="html=1;verticalAlign=bottom;endArrow=blockThin;edgeStyle=elbowEdgeStyle;elbow=vertical;curved=0;rounded=0;endFill=1;" parent="1" edge="1">
          <mxGeometry relative="1" as="geometry">
            <mxPoint x="440" y="420" as="targetPoint" />
            <Array as="points">
              <mxPoint x="400" y="420" />
              <mxPoint x="360" y="420" />
            </Array>
            <mxPoint x="280" y="420" as="sourcePoint" />
            <mxPoint as="offset" />
          </mxGeometry>
        </mxCell>
        <mxCell id="BD8dvzNYRVmhWyHGP17k-49" value="Send Password Change Request" style="html=1;verticalAlign=bottom;endArrow=blockThin;endSize=8;edgeStyle=elbowEdgeStyle;elbow=vertical;curved=0;rounded=0;endFill=1;" parent="1" edge="1">
          <mxGeometry relative="1" as="geometry">
            <mxPoint x="440" y="610" as="targetPoint" />
            <Array as="points">
              <mxPoint x="390" y="610" />
              <mxPoint x="350" y="610" />
            </Array>
            <mxPoint x="270" y="610" as="sourcePoint" />
            <mxPoint as="offset" />
          </mxGeometry>
        </mxCell>
        <mxCell id="BD8dvzNYRVmhWyHGP17k-51" value="Password Updated" style="html=1;verticalAlign=bottom;endArrow=open;dashed=1;endSize=8;edgeStyle=elbowEdgeStyle;elbow=vertical;curved=0;rounded=0;exitX=0.5;exitY=0.941;exitDx=0;exitDy=0;exitPerimeter=0;" parent="1" edge="1">
          <mxGeometry x="0.0005" relative="1" as="geometry">
            <mxPoint x="270" y="710" as="targetPoint" />
            <Array as="points">
              <mxPoint x="145" y="710.09" />
              <mxPoint x="175" y="730.09" />
              <mxPoint x="155" y="720.09" />
              <mxPoint x="165" y="720.09" />
            </Array>
            <mxPoint x="435" y="709.9999999999999" as="sourcePoint" />
            <mxPoint as="offset" />
          </mxGeometry>
        </mxCell>
        <mxCell id="BD8dvzNYRVmhWyHGP17k-52" value="Password not Updated" style="html=1;verticalAlign=bottom;endArrow=open;dashed=1;endSize=8;edgeStyle=elbowEdgeStyle;elbow=vertical;curved=0;rounded=0;exitX=0.5;exitY=0.941;exitDx=0;exitDy=0;exitPerimeter=0;" parent="1" edge="1">
          <mxGeometry x="0.0005" relative="1" as="geometry">
            <mxPoint x="270" y="790" as="targetPoint" />
            <Array as="points">
              <mxPoint x="145" y="790.09" />
              <mxPoint x="175" y="810.09" />
              <mxPoint x="155" y="800.09" />
              <mxPoint x="165" y="800.09" />
            </Array>
            <mxPoint x="435" y="789.9999999999999" as="sourcePoint" />
            <mxPoint as="offset" />
          </mxGeometry>
        </mxCell>
      </root>
    </mxGraphModel>
  </diagram>
  <diagram name="3" id="2YBvvXClWsGukQMizWep">
    <mxGraphModel dx="1032" dy="580" grid="1" gridSize="10" guides="1" tooltips="1" connect="1" arrows="1" fold="1" page="1" pageScale="1" pageWidth="827" pageHeight="1169" math="0" shadow="0">
      <root>
        <mxCell id="0" />
        <mxCell id="1" parent="0" />
        <mxCell id="pBImxP6miKMbB3lka8_O-1" value="UI" style="shape=umlLifeline;perimeter=lifelinePerimeter;whiteSpace=wrap;html=1;container=0;dropTarget=0;collapsible=0;recursiveResize=0;outlineConnect=0;portConstraint=eastwest;newEdgeStyle={&quot;edgeStyle&quot;:&quot;elbowEdgeStyle&quot;,&quot;elbow&quot;:&quot;vertical&quot;,&quot;curved&quot;:0,&quot;rounded&quot;:0};" parent="1" vertex="1">
          <mxGeometry x="239" y="90" width="100" height="440" as="geometry" />
        </mxCell>
        <mxCell id="pBImxP6miKMbB3lka8_O-2" value="" style="html=1;points=[];perimeter=orthogonalPerimeter;outlineConnect=0;targetShapes=umlLifeline;portConstraint=eastwest;newEdgeStyle={&quot;edgeStyle&quot;:&quot;elbowEdgeStyle&quot;,&quot;elbow&quot;:&quot;vertical&quot;,&quot;curved&quot;:0,&quot;rounded&quot;:0};" parent="pBImxP6miKMbB3lka8_O-1" vertex="1">
          <mxGeometry x="45" y="50" width="10" height="330" as="geometry" />
        </mxCell>
        <mxCell id="pBImxP6miKMbB3lka8_O-3" value="" style="shape=umlDestroy;whiteSpace=wrap;html=1;strokeWidth=3;targetShapes=umlLifeline;" parent="pBImxP6miKMbB3lka8_O-1" vertex="1">
          <mxGeometry x="40" y="410" width="20" height="20" as="geometry" />
        </mxCell>
        <mxCell id="pBImxP6miKMbB3lka8_O-4" value="Database" style="shape=umlLifeline;perimeter=lifelinePerimeter;whiteSpace=wrap;html=1;container=0;dropTarget=0;collapsible=0;recursiveResize=0;outlineConnect=0;portConstraint=eastwest;newEdgeStyle={&quot;edgeStyle&quot;:&quot;elbowEdgeStyle&quot;,&quot;elbow&quot;:&quot;vertical&quot;,&quot;curved&quot;:0,&quot;rounded&quot;:0};" parent="1" vertex="1">
          <mxGeometry x="659" y="90" width="100" height="430" as="geometry" />
        </mxCell>
        <mxCell id="pBImxP6miKMbB3lka8_O-5" value="" style="html=1;points=[];perimeter=orthogonalPerimeter;outlineConnect=0;targetShapes=umlLifeline;portConstraint=eastwest;newEdgeStyle={&quot;edgeStyle&quot;:&quot;elbowEdgeStyle&quot;,&quot;elbow&quot;:&quot;vertical&quot;,&quot;curved&quot;:0,&quot;rounded&quot;:0};" parent="pBImxP6miKMbB3lka8_O-4" vertex="1">
          <mxGeometry x="45" y="50" width="10" height="330" as="geometry" />
        </mxCell>
        <mxCell id="pBImxP6miKMbB3lka8_O-6" value="" style="shape=umlDestroy;whiteSpace=wrap;html=1;strokeWidth=3;targetShapes=umlLifeline;" parent="pBImxP6miKMbB3lka8_O-4" vertex="1">
          <mxGeometry x="40" y="410" width="20" height="20" as="geometry" />
        </mxCell>
        <mxCell id="pBImxP6miKMbB3lka8_O-7" value="Show Project Details" style="html=1;verticalAlign=bottom;endArrow=block;edgeStyle=elbowEdgeStyle;elbow=vertical;curved=0;rounded=0;" parent="1" edge="1">
          <mxGeometry relative="1" as="geometry">
            <mxPoint x="504" y="304.33000000000004" as="sourcePoint" />
            <Array as="points">
              <mxPoint x="606.5" y="304.33000000000004" />
              <mxPoint x="566.5" y="294.33000000000004" />
              <mxPoint x="636.5" y="164.33000000000004" />
              <mxPoint x="604" y="154.33000000000004" />
              <mxPoint x="584" y="184.33000000000004" />
            </Array>
            <mxPoint x="708.5" y="304.3299999999999" as="targetPoint" />
          </mxGeometry>
        </mxCell>
        <mxCell id="pBImxP6miKMbB3lka8_O-8" value="Prpject Details is not available" style="html=1;verticalAlign=bottom;endArrow=open;dashed=1;endSize=8;edgeStyle=elbowEdgeStyle;elbow=vertical;curved=0;rounded=0;" parent="1" edge="1">
          <mxGeometry x="-0.0008" relative="1" as="geometry">
            <mxPoint x="499" y="418" as="targetPoint" />
            <Array as="points">
              <mxPoint x="549" y="418" />
              <mxPoint x="639" y="488" />
              <mxPoint x="619" y="478" />
              <mxPoint x="599" y="468" />
              <mxPoint x="579" y="458" />
              <mxPoint x="594" y="438" />
            </Array>
            <mxPoint as="offset" />
            <mxPoint x="704" y="418" as="sourcePoint" />
          </mxGeometry>
        </mxCell>
        <mxCell id="pBImxP6miKMbB3lka8_O-9" value="Project Details is available" style="html=1;verticalAlign=bottom;endArrow=open;dashed=1;endSize=8;edgeStyle=elbowEdgeStyle;elbow=vertical;curved=0;rounded=0;" parent="1" edge="1">
          <mxGeometry relative="1" as="geometry">
            <mxPoint x="499" y="340" as="targetPoint" />
            <Array as="points">
              <mxPoint x="559" y="340" />
              <mxPoint x="599" y="380" />
              <mxPoint x="579" y="370" />
              <mxPoint x="589" y="370" />
            </Array>
            <mxPoint x="704" y="340" as="sourcePoint" />
          </mxGeometry>
        </mxCell>
        <mxCell id="pBImxP6miKMbB3lka8_O-10" value="" style="endArrow=none;dashed=1;html=1;rounded=0;" parent="1" edge="1">
          <mxGeometry width="50" height="50" relative="1" as="geometry">
            <mxPoint x="109" y="520" as="sourcePoint" />
            <mxPoint x="109" y="160" as="targetPoint" />
          </mxGeometry>
        </mxCell>
        <mxCell id="pBImxP6miKMbB3lka8_O-11" value="Project Manager" style="shape=umlActor;verticalLabelPosition=bottom;verticalAlign=top;html=1;outlineConnect=0;" parent="1" vertex="1">
          <mxGeometry x="99" y="70" width="20" height="40" as="geometry" />
        </mxCell>
        <mxCell id="pBImxP6miKMbB3lka8_O-12" value="Alternative" style="shape=umlFrame;whiteSpace=wrap;html=1;pointerEvents=0;" parent="1" vertex="1">
          <mxGeometry x="69" y="320" width="680" height="140" as="geometry" />
        </mxCell>
        <mxCell id="pBImxP6miKMbB3lka8_O-13" value="" style="line;strokeWidth=1;fillColor=none;align=left;verticalAlign=middle;spacingTop=-1;spacingLeft=3;spacingRight=3;rotatable=0;labelPosition=right;points=[];portConstraint=eastwest;strokeColor=inherit;" parent="1" vertex="1">
          <mxGeometry x="69" y="390" width="680" height="8" as="geometry" />
        </mxCell>
        <mxCell id="pBImxP6miKMbB3lka8_O-14" value="&lt;font style=&quot;&quot;&gt;&lt;b style=&quot;font-size: 16px;&quot;&gt;Sequence Diagram - Project Manager View Project&lt;/b&gt;&lt;/font&gt;&lt;b style=&quot;border-color: var(--border-color); font-size: 16px;&quot;&gt;&amp;nbsp;&lt;/b&gt;" style="text;html=1;strokeColor=none;fillColor=none;align=center;verticalAlign=middle;whiteSpace=wrap;rounded=0;" parent="1" vertex="1">
          <mxGeometry x="179" y="40" width="510" height="30" as="geometry" />
        </mxCell>
        <mxCell id="pBImxP6miKMbB3lka8_O-15" value="Display Projec Details" style="html=1;verticalAlign=bottom;endArrow=block;edgeStyle=elbowEdgeStyle;elbow=vertical;curved=0;rounded=0;dashed=1;" parent="1" edge="1">
          <mxGeometry width="80" relative="1" as="geometry">
            <mxPoint x="280" y="380" as="sourcePoint" />
            <mxPoint x="110" y="380" as="targetPoint" />
            <Array as="points">
              <mxPoint x="200" y="380" />
            </Array>
          </mxGeometry>
        </mxCell>
        <mxCell id="pBImxP6miKMbB3lka8_O-16" value="Display Nothing" style="html=1;verticalAlign=bottom;endArrow=block;edgeStyle=elbowEdgeStyle;elbow=vertical;curved=0;rounded=0;dashed=1;" parent="1" edge="1">
          <mxGeometry width="80" relative="1" as="geometry">
            <mxPoint x="280" y="450" as="sourcePoint" />
            <mxPoint x="110" y="450" as="targetPoint" />
          </mxGeometry>
        </mxCell>
        <mxCell id="pBImxP6miKMbB3lka8_O-17" value="&lt;font style=&quot;&quot;&gt;&lt;b style=&quot;font-size: 10px;&quot;&gt;[if project Details&lt;/b&gt;&lt;span style=&quot;font-size: 10px;&quot;&gt;&lt;b&gt;&amp;nbsp;available&lt;/b&gt;&lt;/span&gt;&lt;b style=&quot;font-size: 10px;&quot;&gt;]&lt;/b&gt;&lt;/font&gt;" style="text;html=1;strokeColor=none;fillColor=none;align=left;verticalAlign=middle;whiteSpace=wrap;rounded=0;" parent="1" vertex="1">
          <mxGeometry x="131.5" y="320" width="148.5" height="10" as="geometry" />
        </mxCell>
        <mxCell id="pBImxP6miKMbB3lka8_O-18" value="&lt;font style=&quot;font-size: 10px;&quot;&gt;&lt;b&gt;[else]&lt;/b&gt;&lt;/font&gt;" style="text;html=1;strokeColor=none;fillColor=none;align=left;verticalAlign=middle;whiteSpace=wrap;rounded=0;" parent="1" vertex="1">
          <mxGeometry x="110" y="398" width="80" height="10" as="geometry" />
        </mxCell>
        <mxCell id="pBImxP6miKMbB3lka8_O-19" value="Select the Project" style="html=1;verticalAlign=bottom;endArrow=blockThin;edgeStyle=elbowEdgeStyle;elbow=vertical;curved=0;rounded=0;endFill=1;" parent="1" edge="1">
          <mxGeometry relative="1" as="geometry">
            <mxPoint x="284" y="210" as="targetPoint" />
            <Array as="points">
              <mxPoint x="222.25" y="210" />
              <mxPoint x="189.75" y="230" />
            </Array>
            <mxPoint x="110.25" y="210" as="sourcePoint" />
            <mxPoint as="offset" />
          </mxGeometry>
        </mxCell>
        <mxCell id="pBImxP6miKMbB3lka8_O-21" value="System" style="shape=umlLifeline;perimeter=lifelinePerimeter;whiteSpace=wrap;html=1;container=0;dropTarget=0;collapsible=0;recursiveResize=0;outlineConnect=0;portConstraint=eastwest;newEdgeStyle={&quot;edgeStyle&quot;:&quot;elbowEdgeStyle&quot;,&quot;elbow&quot;:&quot;vertical&quot;,&quot;curved&quot;:0,&quot;rounded&quot;:0};" parent="1" vertex="1">
          <mxGeometry x="449" y="90" width="100" height="430" as="geometry" />
        </mxCell>
        <mxCell id="pBImxP6miKMbB3lka8_O-22" value="" style="html=1;points=[];perimeter=orthogonalPerimeter;outlineConnect=0;targetShapes=umlLifeline;portConstraint=eastwest;newEdgeStyle={&quot;edgeStyle&quot;:&quot;elbowEdgeStyle&quot;,&quot;elbow&quot;:&quot;vertical&quot;,&quot;curved&quot;:0,&quot;rounded&quot;:0};" parent="pBImxP6miKMbB3lka8_O-21" vertex="1">
          <mxGeometry x="45" y="50" width="10" height="330" as="geometry" />
        </mxCell>
        <mxCell id="pBImxP6miKMbB3lka8_O-23" value="" style="shape=umlDestroy;whiteSpace=wrap;html=1;strokeWidth=3;targetShapes=umlLifeline;" parent="pBImxP6miKMbB3lka8_O-21" vertex="1">
          <mxGeometry x="40" y="410" width="20" height="20" as="geometry" />
        </mxCell>
        <mxCell id="pBImxP6miKMbB3lka8_O-24" value="Selected Project" style="html=1;verticalAlign=bottom;endArrow=block;edgeStyle=elbowEdgeStyle;elbow=vertical;curved=0;rounded=0;" parent="1" edge="1">
          <mxGeometry relative="1" as="geometry">
            <mxPoint x="299" y="260" as="sourcePoint" />
            <Array as="points">
              <mxPoint x="401.5" y="260" />
              <mxPoint x="361.5" y="250" />
              <mxPoint x="431.5" y="120" />
              <mxPoint x="399" y="110" />
              <mxPoint x="379" y="140" />
            </Array>
            <mxPoint x="489" y="260" as="targetPoint" />
          </mxGeometry>
        </mxCell>
        <mxCell id="pBImxP6miKMbB3lka8_O-25" value="Project Details" style="html=1;verticalAlign=bottom;endArrow=block;edgeStyle=elbowEdgeStyle;elbow=vertical;curved=0;rounded=0;dashed=1;" parent="1" edge="1">
          <mxGeometry width="80" relative="1" as="geometry">
            <mxPoint x="489.5" y="360" as="sourcePoint" />
            <mxPoint x="290" y="360" as="targetPoint" />
            <Array as="points">
              <mxPoint x="380" y="360" />
            </Array>
          </mxGeometry>
        </mxCell>
        <mxCell id="pBImxP6miKMbB3lka8_O-26" value="No Project Details" style="html=1;verticalAlign=bottom;endArrow=block;edgeStyle=elbowEdgeStyle;elbow=vertical;curved=0;rounded=0;dashed=1;" parent="1" edge="1">
          <mxGeometry width="80" relative="1" as="geometry">
            <mxPoint x="488.5" y="430" as="sourcePoint" />
            <mxPoint x="289" y="430" as="targetPoint" />
            <Array as="points">
              <mxPoint x="379" y="430" />
            </Array>
          </mxGeometry>
        </mxCell>
        <mxCell id="Kt0bCvdPCDKV3a1Qo8Ne-1" value="&lt;font style=&quot;border-color: var(--border-color);&quot;&gt;&lt;b style=&quot;border-color: var(--border-color); font-size: 16px;&quot;&gt;Sequence Diagram - Project Manager Update and Submit the Task Plan&lt;/b&gt;&lt;/font&gt;" style="text;html=1;strokeColor=none;fillColor=none;align=center;verticalAlign=middle;whiteSpace=wrap;rounded=0;" parent="1" vertex="1">
          <mxGeometry x="119" y="570" width="610" height="30" as="geometry" />
        </mxCell>
        <mxCell id="Kt0bCvdPCDKV3a1Qo8Ne-2" value="UI" style="shape=umlLifeline;perimeter=lifelinePerimeter;whiteSpace=wrap;html=1;container=0;dropTarget=0;collapsible=0;recursiveResize=0;outlineConnect=0;portConstraint=eastwest;newEdgeStyle={&quot;edgeStyle&quot;:&quot;elbowEdgeStyle&quot;,&quot;elbow&quot;:&quot;vertical&quot;,&quot;curved&quot;:0,&quot;rounded&quot;:0};" parent="1" vertex="1">
          <mxGeometry x="253" y="625" width="100" height="535" as="geometry" />
        </mxCell>
        <mxCell id="Kt0bCvdPCDKV3a1Qo8Ne-3" value="" style="html=1;points=[];perimeter=orthogonalPerimeter;outlineConnect=0;targetShapes=umlLifeline;portConstraint=eastwest;newEdgeStyle={&quot;edgeStyle&quot;:&quot;elbowEdgeStyle&quot;,&quot;elbow&quot;:&quot;vertical&quot;,&quot;curved&quot;:0,&quot;rounded&quot;:0};" parent="Kt0bCvdPCDKV3a1Qo8Ne-2" vertex="1">
          <mxGeometry x="45" y="80" width="10" height="430" as="geometry" />
        </mxCell>
        <mxCell id="Kt0bCvdPCDKV3a1Qo8Ne-4" value="" style="shape=umlDestroy;whiteSpace=wrap;html=1;strokeWidth=3;targetShapes=umlLifeline;" parent="Kt0bCvdPCDKV3a1Qo8Ne-2" vertex="1">
          <mxGeometry x="40" y="515" width="20" height="20" as="geometry" />
        </mxCell>
        <mxCell id="Kt0bCvdPCDKV3a1Qo8Ne-5" value="Database" style="shape=umlLifeline;perimeter=lifelinePerimeter;whiteSpace=wrap;html=1;container=0;dropTarget=0;collapsible=0;recursiveResize=0;outlineConnect=0;portConstraint=eastwest;newEdgeStyle={&quot;edgeStyle&quot;:&quot;elbowEdgeStyle&quot;,&quot;elbow&quot;:&quot;vertical&quot;,&quot;curved&quot;:0,&quot;rounded&quot;:0};" parent="1" vertex="1">
          <mxGeometry x="693" y="625" width="100" height="535" as="geometry" />
        </mxCell>
        <mxCell id="Kt0bCvdPCDKV3a1Qo8Ne-6" value="" style="html=1;points=[];perimeter=orthogonalPerimeter;outlineConnect=0;targetShapes=umlLifeline;portConstraint=eastwest;newEdgeStyle={&quot;edgeStyle&quot;:&quot;elbowEdgeStyle&quot;,&quot;elbow&quot;:&quot;vertical&quot;,&quot;curved&quot;:0,&quot;rounded&quot;:0};" parent="Kt0bCvdPCDKV3a1Qo8Ne-5" vertex="1">
          <mxGeometry x="45" y="80" width="10" height="430" as="geometry" />
        </mxCell>
        <mxCell id="Kt0bCvdPCDKV3a1Qo8Ne-7" value="" style="shape=umlDestroy;whiteSpace=wrap;html=1;strokeWidth=3;targetShapes=umlLifeline;" parent="Kt0bCvdPCDKV3a1Qo8Ne-5" vertex="1">
          <mxGeometry x="40" y="515" width="20" height="20" as="geometry" />
        </mxCell>
        <mxCell id="Kt0bCvdPCDKV3a1Qo8Ne-8" value="Update the Task Plan Details" style="html=1;verticalAlign=bottom;endArrow=block;edgeStyle=elbowEdgeStyle;elbow=vertical;curved=0;rounded=0;" parent="1" edge="1">
          <mxGeometry relative="1" as="geometry">
            <mxPoint x="530" y="760.5" as="sourcePoint" />
            <Array as="points">
              <mxPoint x="536.75" y="760" />
              <mxPoint x="595.25" y="630" />
              <mxPoint x="575.25" y="660" />
            </Array>
            <mxPoint x="739.5" y="760" as="targetPoint" />
          </mxGeometry>
        </mxCell>
        <mxCell id="Kt0bCvdPCDKV3a1Qo8Ne-9" value="Task Plan Details&amp;nbsp; may not&lt;br&gt;update Successfully" style="html=1;verticalAlign=bottom;endArrow=open;dashed=1;endSize=8;edgeStyle=elbowEdgeStyle;elbow=vertical;curved=0;rounded=0;" parent="1" edge="1">
          <mxGeometry x="-0.0057" relative="1" as="geometry">
            <mxPoint x="527.5" y="892" as="targetPoint" />
            <Array as="points">
              <mxPoint x="557.75" y="892" />
              <mxPoint x="647.75" y="962" />
              <mxPoint x="627.75" y="952" />
              <mxPoint x="607.75" y="942" />
              <mxPoint x="587.75" y="932" />
              <mxPoint x="602.75" y="912" />
            </Array>
            <mxPoint as="offset" />
            <mxPoint x="743" y="892" as="sourcePoint" />
          </mxGeometry>
        </mxCell>
        <mxCell id="Kt0bCvdPCDKV3a1Qo8Ne-10" value="Task Plan Details Updated Successfully" style="html=1;verticalAlign=bottom;endArrow=open;dashed=1;endSize=8;edgeStyle=elbowEdgeStyle;elbow=vertical;curved=0;rounded=0;" parent="1" edge="1">
          <mxGeometry x="-0.0436" relative="1" as="geometry">
            <mxPoint x="528" y="810" as="targetPoint" />
            <Array as="points">
              <mxPoint x="568.25" y="810" />
              <mxPoint x="608.25" y="850" />
              <mxPoint x="588.25" y="840" />
              <mxPoint x="598.25" y="840" />
            </Array>
            <mxPoint x="738" y="810" as="sourcePoint" />
            <mxPoint as="offset" />
          </mxGeometry>
        </mxCell>
        <mxCell id="Kt0bCvdPCDKV3a1Qo8Ne-11" value="" style="endArrow=none;dashed=1;html=1;rounded=0;" parent="1" edge="1">
          <mxGeometry width="50" height="50" relative="1" as="geometry">
            <mxPoint x="83" y="1160" as="sourcePoint" />
            <mxPoint x="83.32999999999998" y="710" as="targetPoint" />
          </mxGeometry>
        </mxCell>
        <mxCell id="Kt0bCvdPCDKV3a1Qo8Ne-12" value="Project Manager" style="shape=umlActor;verticalLabelPosition=bottom;verticalAlign=top;html=1;outlineConnect=0;" parent="1" vertex="1">
          <mxGeometry x="73" y="635" width="20" height="40" as="geometry" />
        </mxCell>
        <mxCell id="Kt0bCvdPCDKV3a1Qo8Ne-13" value="Alternative" style="shape=umlFrame;whiteSpace=wrap;html=1;pointerEvents=0;" parent="1" vertex="1">
          <mxGeometry x="30" y="790" width="753" height="130" as="geometry" />
        </mxCell>
        <mxCell id="Kt0bCvdPCDKV3a1Qo8Ne-14" value="" style="line;strokeWidth=1;fillColor=none;align=left;verticalAlign=middle;spacingTop=-1;spacingLeft=3;spacingRight=3;rotatable=0;labelPosition=right;points=[];portConstraint=eastwest;strokeColor=inherit;" parent="1" vertex="1">
          <mxGeometry x="30" y="856" width="749" height="8" as="geometry" />
        </mxCell>
        <mxCell id="Kt0bCvdPCDKV3a1Qo8Ne-15" value="Display Task Plan Details &lt;br&gt;Successfully Updated" style="html=1;verticalAlign=bottom;endArrow=block;edgeStyle=elbowEdgeStyle;elbow=vertical;curved=0;rounded=0;dashed=1;exitX=0.025;exitY=0.735;exitDx=0;exitDy=0;exitPerimeter=0;" parent="1" edge="1">
          <mxGeometry x="0.1266" width="80" relative="1" as="geometry">
            <mxPoint x="298.25" y="866" as="sourcePoint" />
            <mxPoint x="83" y="844.05" as="targetPoint" />
            <Array as="points">
              <mxPoint x="200.5" y="844.05" />
            </Array>
            <mxPoint x="-1" as="offset" />
          </mxGeometry>
        </mxCell>
        <mxCell id="Kt0bCvdPCDKV3a1Qo8Ne-16" value="Display Error Message" style="html=1;verticalAlign=bottom;endArrow=block;edgeStyle=elbowEdgeStyle;elbow=vertical;curved=0;rounded=0;dashed=1;" parent="1" edge="1">
          <mxGeometry width="80" relative="1" as="geometry">
            <mxPoint x="295" y="910.3333333333333" as="sourcePoint" />
            <mxPoint x="80" y="910" as="targetPoint" />
          </mxGeometry>
        </mxCell>
        <mxCell id="Kt0bCvdPCDKV3a1Qo8Ne-17" value="&lt;span style=&quot;font-size: 10px;&quot;&gt;&lt;b&gt;[if Details Updated ]&lt;/b&gt;&lt;/span&gt;" style="text;html=1;strokeColor=none;fillColor=none;align=left;verticalAlign=middle;whiteSpace=wrap;rounded=0;" parent="1" vertex="1">
          <mxGeometry x="99" y="790" width="140" height="10" as="geometry" />
        </mxCell>
        <mxCell id="Kt0bCvdPCDKV3a1Qo8Ne-18" value="&lt;font style=&quot;font-size: 10px;&quot;&gt;&lt;b&gt;[else]&lt;/b&gt;&lt;/font&gt;" style="text;html=1;strokeColor=none;fillColor=none;align=left;verticalAlign=middle;whiteSpace=wrap;rounded=0;" parent="1" vertex="1">
          <mxGeometry x="80" y="868" width="80" height="10" as="geometry" />
        </mxCell>
        <mxCell id="Kt0bCvdPCDKV3a1Qo8Ne-20" value="Update the Task Plan Details" style="html=1;verticalAlign=bottom;endArrow=blockThin;edgeStyle=elbowEdgeStyle;elbow=vertical;curved=0;rounded=0;endFill=1;" parent="1" edge="1">
          <mxGeometry relative="1" as="geometry">
            <mxPoint x="291.5" y="730" as="targetPoint" />
            <Array as="points">
              <mxPoint x="216" y="730" />
              <mxPoint x="183.5" y="750" />
            </Array>
            <mxPoint x="86.5" y="730" as="sourcePoint" />
            <mxPoint as="offset" />
          </mxGeometry>
        </mxCell>
        <mxCell id="Kt0bCvdPCDKV3a1Qo8Ne-21" value="System" style="shape=umlLifeline;perimeter=lifelinePerimeter;whiteSpace=wrap;html=1;container=0;dropTarget=0;collapsible=0;recursiveResize=0;outlineConnect=0;portConstraint=eastwest;newEdgeStyle={&quot;edgeStyle&quot;:&quot;elbowEdgeStyle&quot;,&quot;elbow&quot;:&quot;vertical&quot;,&quot;curved&quot;:0,&quot;rounded&quot;:0};" parent="1" vertex="1">
          <mxGeometry x="453" y="625" width="140" height="535" as="geometry" />
        </mxCell>
        <mxCell id="Kt0bCvdPCDKV3a1Qo8Ne-22" value="" style="html=1;points=[];perimeter=orthogonalPerimeter;outlineConnect=0;targetShapes=umlLifeline;portConstraint=eastwest;newEdgeStyle={&quot;edgeStyle&quot;:&quot;elbowEdgeStyle&quot;,&quot;elbow&quot;:&quot;vertical&quot;,&quot;curved&quot;:0,&quot;rounded&quot;:0};" parent="Kt0bCvdPCDKV3a1Qo8Ne-21" vertex="1">
          <mxGeometry x="65" y="80" width="10" height="430" as="geometry" />
        </mxCell>
        <mxCell id="Kt0bCvdPCDKV3a1Qo8Ne-23" value="" style="shape=umlDestroy;whiteSpace=wrap;html=1;strokeWidth=3;targetShapes=umlLifeline;" parent="Kt0bCvdPCDKV3a1Qo8Ne-21" vertex="1">
          <mxGeometry x="60" y="515" width="20" height="20" as="geometry" />
        </mxCell>
        <mxCell id="Kt0bCvdPCDKV3a1Qo8Ne-24" value="Updated Task Plan Details" style="html=1;verticalAlign=bottom;endArrow=block;edgeStyle=elbowEdgeStyle;elbow=vertical;curved=0;rounded=0;" parent="1" edge="1">
          <mxGeometry relative="1" as="geometry">
            <mxPoint x="306" y="750" as="sourcePoint" />
            <Array as="points">
              <mxPoint x="408.5" y="750" />
              <mxPoint x="368.5" y="740" />
              <mxPoint x="438.5" y="610" />
              <mxPoint x="406" y="600" />
              <mxPoint x="386" y="630" />
            </Array>
            <mxPoint x="520.25" y="750" as="targetPoint" />
          </mxGeometry>
        </mxCell>
        <mxCell id="Kt0bCvdPCDKV3a1Qo8Ne-25" value="Task Plan Details Updated&amp;nbsp;" style="html=1;verticalAlign=bottom;endArrow=open;dashed=1;endSize=8;edgeStyle=elbowEdgeStyle;elbow=vertical;curved=0;rounded=0;" parent="1" edge="1">
          <mxGeometry relative="1" as="geometry">
            <mxPoint x="306" y="820" as="targetPoint" />
            <Array as="points">
              <mxPoint x="366" y="820" />
              <mxPoint x="406" y="860" />
              <mxPoint x="386" y="850" />
              <mxPoint x="396" y="850" />
            </Array>
            <mxPoint x="520.25" y="820" as="sourcePoint" />
          </mxGeometry>
        </mxCell>
        <mxCell id="Kt0bCvdPCDKV3a1Qo8Ne-26" value="Task Plan Detail not Updated" style="html=1;verticalAlign=bottom;endArrow=open;dashed=1;endSize=8;edgeStyle=elbowEdgeStyle;elbow=vertical;curved=0;rounded=0;" parent="1" edge="1">
          <mxGeometry relative="1" as="geometry">
            <mxPoint x="308.81" y="900" as="targetPoint" />
            <Array as="points">
              <mxPoint x="368.81" y="900" />
              <mxPoint x="408.81" y="940" />
              <mxPoint x="388.81" y="930" />
              <mxPoint x="398.81" y="930" />
            </Array>
            <mxPoint x="522.19" y="900" as="sourcePoint" />
          </mxGeometry>
        </mxCell>
        <mxCell id="P3d5GPimr9DSL9Ap-_Th-14" value="Alternative" style="shape=umlFrame;whiteSpace=wrap;html=1;pointerEvents=0;" parent="1" vertex="1">
          <mxGeometry x="32.5" y="980" width="753" height="130" as="geometry" />
        </mxCell>
        <mxCell id="P3d5GPimr9DSL9Ap-_Th-15" value="" style="line;strokeWidth=1;fillColor=none;align=left;verticalAlign=middle;spacingTop=-1;spacingLeft=3;spacingRight=3;rotatable=0;labelPosition=right;points=[];portConstraint=eastwest;strokeColor=inherit;" parent="1" vertex="1">
          <mxGeometry x="32.5" y="1046" width="749" height="8" as="geometry" />
        </mxCell>
        <mxCell id="P3d5GPimr9DSL9Ap-_Th-16" value="Display Task Plan&lt;br&gt;Successfully Submitted" style="html=1;verticalAlign=bottom;endArrow=block;edgeStyle=elbowEdgeStyle;elbow=vertical;curved=0;rounded=0;dashed=1;exitX=0.025;exitY=0.735;exitDx=0;exitDy=0;exitPerimeter=0;" parent="1" edge="1">
          <mxGeometry x="0.1266" width="80" relative="1" as="geometry">
            <mxPoint x="300.75" y="1056" as="sourcePoint" />
            <mxPoint x="85.5" y="1034.05" as="targetPoint" />
            <Array as="points">
              <mxPoint x="203" y="1034.05" />
            </Array>
            <mxPoint x="-1" as="offset" />
          </mxGeometry>
        </mxCell>
        <mxCell id="P3d5GPimr9DSL9Ap-_Th-17" value="Display Error Message" style="html=1;verticalAlign=bottom;endArrow=block;edgeStyle=elbowEdgeStyle;elbow=vertical;curved=0;rounded=0;dashed=1;" parent="1" edge="1">
          <mxGeometry width="80" relative="1" as="geometry">
            <mxPoint x="297.5" y="1100.3333333333333" as="sourcePoint" />
            <mxPoint x="82.5" y="1100" as="targetPoint" />
          </mxGeometry>
        </mxCell>
        <mxCell id="P3d5GPimr9DSL9Ap-_Th-18" value="&lt;span style=&quot;font-size: 10px;&quot;&gt;&lt;b&gt;[if all the Details Updated ]&lt;/b&gt;&lt;/span&gt;" style="text;html=1;strokeColor=none;fillColor=none;align=left;verticalAlign=middle;whiteSpace=wrap;rounded=0;" parent="1" vertex="1">
          <mxGeometry x="101.5" y="980" width="140" height="10" as="geometry" />
        </mxCell>
        <mxCell id="P3d5GPimr9DSL9Ap-_Th-19" value="&lt;font style=&quot;font-size: 10px;&quot;&gt;&lt;b&gt;[else]&lt;/b&gt;&lt;/font&gt;" style="text;html=1;strokeColor=none;fillColor=none;align=left;verticalAlign=middle;whiteSpace=wrap;rounded=0;" parent="1" vertex="1">
          <mxGeometry x="82.5" y="1058" width="80" height="10" as="geometry" />
        </mxCell>
        <mxCell id="P3d5GPimr9DSL9Ap-_Th-20" value="All the Task Plan Details are Updated&amp;nbsp;" style="html=1;verticalAlign=bottom;endArrow=open;dashed=1;endSize=8;edgeStyle=elbowEdgeStyle;elbow=vertical;curved=0;rounded=0;" parent="1" edge="1">
          <mxGeometry relative="1" as="geometry">
            <mxPoint x="308.5" y="1010" as="targetPoint" />
            <Array as="points">
              <mxPoint x="368.5" y="1010" />
              <mxPoint x="408.5" y="1050" />
              <mxPoint x="388.5" y="1040" />
              <mxPoint x="398.5" y="1040" />
            </Array>
            <mxPoint x="522.75" y="1010" as="sourcePoint" />
          </mxGeometry>
        </mxCell>
        <mxCell id="P3d5GPimr9DSL9Ap-_Th-21" value="All the Task Plan Detail not Updated" style="html=1;verticalAlign=bottom;endArrow=open;dashed=1;endSize=8;edgeStyle=elbowEdgeStyle;elbow=vertical;curved=0;rounded=0;" parent="1" edge="1">
          <mxGeometry relative="1" as="geometry">
            <mxPoint x="311.31" y="1090" as="targetPoint" />
            <Array as="points">
              <mxPoint x="371.31" y="1090" />
              <mxPoint x="411.31" y="1130" />
              <mxPoint x="391.31" y="1120" />
              <mxPoint x="401.31" y="1120" />
            </Array>
            <mxPoint x="524.69" y="1090" as="sourcePoint" />
          </mxGeometry>
        </mxCell>
        <mxCell id="OXTxOhxEpNxrUAnIepC9-1" value="Click the Submit button" style="html=1;verticalAlign=bottom;endArrow=blockThin;edgeStyle=elbowEdgeStyle;elbow=vertical;curved=0;rounded=0;endFill=1;" parent="1" edge="1">
          <mxGeometry relative="1" as="geometry">
            <mxPoint x="298" y="950" as="targetPoint" />
            <Array as="points">
              <mxPoint x="222.5" y="950" />
              <mxPoint x="190" y="970" />
            </Array>
            <mxPoint x="80" y="950" as="sourcePoint" />
            <mxPoint as="offset" />
          </mxGeometry>
        </mxCell>
        <mxCell id="OXTxOhxEpNxrUAnIepC9-2" value="submitted contents" style="html=1;verticalAlign=bottom;endArrow=block;edgeStyle=elbowEdgeStyle;elbow=vertical;curved=0;rounded=0;" parent="1" edge="1">
          <mxGeometry relative="1" as="geometry">
            <mxPoint x="306" y="960" as="sourcePoint" />
            <Array as="points">
              <mxPoint x="408.5" y="960" />
              <mxPoint x="368.5" y="950" />
              <mxPoint x="438.5" y="820" />
              <mxPoint x="406" y="810" />
              <mxPoint x="386" y="840" />
            </Array>
            <mxPoint x="520.25" y="960" as="targetPoint" />
          </mxGeometry>
        </mxCell>
      </root>
    </mxGraphModel>
  </diagram>
  <diagram id="Kru4ICM7iTM4zpzb1PC9" name="4">
    <mxGraphModel dx="1032" dy="580" grid="1" gridSize="10" guides="1" tooltips="1" connect="1" arrows="1" fold="1" page="1" pageScale="1" pageWidth="827" pageHeight="1169" math="0" shadow="0">
      <root>
        <mxCell id="0" />
        <mxCell id="1" parent="0" />
        <mxCell id="abhu93Ytleb-flPvAil3-1" value="&lt;font style=&quot;border-color: var(--border-color);&quot;&gt;&lt;b style=&quot;border-color: var(--border-color); font-size: 16px;&quot;&gt;Sequence Diagram - Project Manager Send Employee Request for Project&lt;/b&gt;&lt;/font&gt;" style="text;html=1;strokeColor=none;fillColor=none;align=center;verticalAlign=middle;whiteSpace=wrap;rounded=0;" parent="1" vertex="1">
          <mxGeometry x="100" y="20" width="610" height="30" as="geometry" />
        </mxCell>
        <mxCell id="abhu93Ytleb-flPvAil3-2" value="UI" style="shape=umlLifeline;perimeter=lifelinePerimeter;whiteSpace=wrap;html=1;container=0;dropTarget=0;collapsible=0;recursiveResize=0;outlineConnect=0;portConstraint=eastwest;newEdgeStyle={&quot;edgeStyle&quot;:&quot;elbowEdgeStyle&quot;,&quot;elbow&quot;:&quot;vertical&quot;,&quot;curved&quot;:0,&quot;rounded&quot;:0};" parent="1" vertex="1">
          <mxGeometry x="259" y="80" width="100" height="460" as="geometry" />
        </mxCell>
        <mxCell id="abhu93Ytleb-flPvAil3-3" value="" style="html=1;points=[];perimeter=orthogonalPerimeter;outlineConnect=0;targetShapes=umlLifeline;portConstraint=eastwest;newEdgeStyle={&quot;edgeStyle&quot;:&quot;elbowEdgeStyle&quot;,&quot;elbow&quot;:&quot;vertical&quot;,&quot;curved&quot;:0,&quot;rounded&quot;:0};" parent="abhu93Ytleb-flPvAil3-2" vertex="1">
          <mxGeometry x="45" y="70" width="10" height="340" as="geometry" />
        </mxCell>
        <mxCell id="abhu93Ytleb-flPvAil3-4" value="" style="shape=umlDestroy;whiteSpace=wrap;html=1;strokeWidth=3;targetShapes=umlLifeline;" parent="abhu93Ytleb-flPvAil3-2" vertex="1">
          <mxGeometry x="41.5" y="440" width="20" height="20" as="geometry" />
        </mxCell>
        <mxCell id="abhu93Ytleb-flPvAil3-5" value="Database" style="shape=umlLifeline;perimeter=lifelinePerimeter;whiteSpace=wrap;html=1;container=0;dropTarget=0;collapsible=0;recursiveResize=0;outlineConnect=0;portConstraint=eastwest;newEdgeStyle={&quot;edgeStyle&quot;:&quot;elbowEdgeStyle&quot;,&quot;elbow&quot;:&quot;vertical&quot;,&quot;curved&quot;:0,&quot;rounded&quot;:0};" parent="1" vertex="1">
          <mxGeometry x="651.25" y="80" width="100" height="460" as="geometry" />
        </mxCell>
        <mxCell id="abhu93Ytleb-flPvAil3-6" value="" style="html=1;points=[];perimeter=orthogonalPerimeter;outlineConnect=0;targetShapes=umlLifeline;portConstraint=eastwest;newEdgeStyle={&quot;edgeStyle&quot;:&quot;elbowEdgeStyle&quot;,&quot;elbow&quot;:&quot;vertical&quot;,&quot;curved&quot;:0,&quot;rounded&quot;:0};" parent="abhu93Ytleb-flPvAil3-5" vertex="1">
          <mxGeometry x="45" y="70" width="10" height="340" as="geometry" />
        </mxCell>
        <mxCell id="abhu93Ytleb-flPvAil3-7" value="" style="shape=umlDestroy;whiteSpace=wrap;html=1;strokeWidth=3;targetShapes=umlLifeline;" parent="abhu93Ytleb-flPvAil3-5" vertex="1">
          <mxGeometry x="41.5" y="440" width="20" height="20" as="geometry" />
        </mxCell>
        <mxCell id="abhu93Ytleb-flPvAil3-8" value="Insert the the Details of &lt;br&gt;Employee Requests" style="html=1;verticalAlign=bottom;endArrow=block;edgeStyle=elbowEdgeStyle;elbow=vertical;curved=0;rounded=0;" parent="1" edge="1">
          <mxGeometry relative="1" as="geometry">
            <mxPoint x="510" y="320" as="sourcePoint" />
            <Array as="points">
              <mxPoint x="551.5" y="320" />
              <mxPoint x="610" y="190" />
              <mxPoint x="590" y="220" />
            </Array>
            <mxPoint x="700" y="320.5" as="targetPoint" />
          </mxGeometry>
        </mxCell>
        <mxCell id="abhu93Ytleb-flPvAil3-9" value="Details of the Employee Requests&amp;nbsp;&lt;br style=&quot;border-color: var(--border-color);&quot;&gt;not saved" style="html=1;verticalAlign=bottom;endArrow=open;dashed=1;endSize=8;edgeStyle=elbowEdgeStyle;elbow=vertical;curved=0;rounded=0;exitX=0.8;exitY=0.824;exitDx=0;exitDy=0;exitPerimeter=0;" parent="1" edge="1">
          <mxGeometry x="-0.0057" relative="1" as="geometry">
            <mxPoint x="510" y="440" as="targetPoint" />
            <Array as="points">
              <mxPoint x="560" y="440" />
              <mxPoint x="650" y="510" />
              <mxPoint x="630" y="500" />
              <mxPoint x="610" y="490" />
              <mxPoint x="590" y="480" />
              <mxPoint x="605" y="460" />
            </Array>
            <mxPoint as="offset" />
            <mxPoint x="700" y="440.15999999999997" as="sourcePoint" />
          </mxGeometry>
        </mxCell>
        <mxCell id="abhu93Ytleb-flPvAil3-10" value="Details of the Employee Requests&lt;br&gt;saved Successfully" style="html=1;verticalAlign=bottom;endArrow=open;dashed=1;endSize=8;edgeStyle=elbowEdgeStyle;elbow=horizontal;curved=0;rounded=0;" parent="1" edge="1">
          <mxGeometry relative="1" as="geometry">
            <mxPoint x="510" y="370" as="targetPoint" />
            <Array as="points">
              <mxPoint x="570" y="370" />
              <mxPoint x="610" y="410" />
              <mxPoint x="590" y="400" />
              <mxPoint x="600" y="400" />
            </Array>
            <mxPoint x="692" y="370" as="sourcePoint" />
          </mxGeometry>
        </mxCell>
        <mxCell id="abhu93Ytleb-flPvAil3-11" value="" style="endArrow=none;dashed=1;html=1;rounded=0;" parent="1" edge="1">
          <mxGeometry width="50" height="50" relative="1" as="geometry">
            <mxPoint x="116.5" y="530" as="sourcePoint" />
            <mxPoint x="117.5" y="150" as="targetPoint" />
          </mxGeometry>
        </mxCell>
        <mxCell id="abhu93Ytleb-flPvAil3-12" value="Project Manager" style="shape=umlActor;verticalLabelPosition=bottom;verticalAlign=top;html=1;outlineConnect=0;" parent="1" vertex="1">
          <mxGeometry x="107.5" y="80" width="20" height="40" as="geometry" />
        </mxCell>
        <mxCell id="abhu93Ytleb-flPvAil3-13" value="Alternative" style="shape=umlFrame;whiteSpace=wrap;html=1;pointerEvents=0;" parent="1" vertex="1">
          <mxGeometry x="69" y="340" width="691" height="140" as="geometry" />
        </mxCell>
        <mxCell id="abhu93Ytleb-flPvAil3-14" value="" style="line;strokeWidth=1;fillColor=none;align=left;verticalAlign=middle;spacingTop=-1;spacingLeft=3;spacingRight=3;rotatable=0;labelPosition=right;points=[];portConstraint=eastwest;strokeColor=inherit;" parent="1" vertex="1">
          <mxGeometry x="69" y="406" width="691" height="8" as="geometry" />
        </mxCell>
        <mxCell id="abhu93Ytleb-flPvAil3-15" value="Display Request Sent Successfully" style="html=1;verticalAlign=bottom;endArrow=block;edgeStyle=elbowEdgeStyle;elbow=vertical;curved=0;rounded=0;dashed=1;exitX=0.025;exitY=0.735;exitDx=0;exitDy=0;exitPerimeter=0;" parent="1" source="abhu93Ytleb-flPvAil3-3" edge="1">
          <mxGeometry width="80" relative="1" as="geometry">
            <mxPoint x="286.5" y="400" as="sourcePoint" />
            <mxPoint x="116.5" y="400" as="targetPoint" />
            <Array as="points">
              <mxPoint x="206.5" y="400" />
            </Array>
          </mxGeometry>
        </mxCell>
        <mxCell id="abhu93Ytleb-flPvAil3-16" value="Display Error Message" style="html=1;verticalAlign=bottom;endArrow=block;edgeStyle=elbowEdgeStyle;elbow=vertical;curved=0;rounded=0;dashed=1;" parent="1" edge="1">
          <mxGeometry width="80" relative="1" as="geometry">
            <mxPoint x="304" y="470" as="sourcePoint" />
            <mxPoint x="116.5" y="470" as="targetPoint" />
          </mxGeometry>
        </mxCell>
        <mxCell id="abhu93Ytleb-flPvAil3-17" value="&lt;font style=&quot;&quot;&gt;&lt;b style=&quot;font-size: 10px;&quot;&gt;[if Details add Successfully&lt;/b&gt;&lt;b style=&quot;font-size: 10px;&quot;&gt;]&lt;/b&gt;&lt;/font&gt;" style="text;html=1;strokeColor=none;fillColor=none;align=left;verticalAlign=middle;whiteSpace=wrap;rounded=0;" parent="1" vertex="1">
          <mxGeometry x="134.25" y="350" width="135.75" height="10" as="geometry" />
        </mxCell>
        <mxCell id="abhu93Ytleb-flPvAil3-18" value="&lt;font style=&quot;font-size: 10px;&quot;&gt;&lt;b&gt;[else]&lt;/b&gt;&lt;/font&gt;" style="text;html=1;strokeColor=none;fillColor=none;align=left;verticalAlign=middle;whiteSpace=wrap;rounded=0;" parent="1" vertex="1">
          <mxGeometry x="69" y="418" width="80" height="10" as="geometry" />
        </mxCell>
        <mxCell id="abhu93Ytleb-flPvAil3-23" value="Select the Employee Tab" style="html=1;verticalAlign=bottom;endArrow=blockThin;edgeStyle=elbowEdgeStyle;elbow=vertical;curved=0;rounded=0;endFill=1;" parent="1" target="abhu93Ytleb-flPvAil3-3" edge="1">
          <mxGeometry relative="1" as="geometry">
            <mxPoint x="286.5" y="200" as="targetPoint" />
            <Array as="points">
              <mxPoint x="228.5" y="200" />
              <mxPoint x="196" y="220" />
            </Array>
            <mxPoint x="116.5" y="200" as="sourcePoint" />
            <mxPoint as="offset" />
          </mxGeometry>
        </mxCell>
        <mxCell id="abhu93Ytleb-flPvAil3-24" value="Fill the Details of Employee Requests" style="html=1;verticalAlign=bottom;endArrow=blockThin;edgeStyle=elbowEdgeStyle;elbow=vertical;curved=0;rounded=0;endFill=1;" parent="1" target="abhu93Ytleb-flPvAil3-3" edge="1">
          <mxGeometry relative="1" as="geometry">
            <mxPoint x="286.5" y="240" as="targetPoint" />
            <Array as="points">
              <mxPoint x="228.5" y="240" />
              <mxPoint x="196" y="260" />
            </Array>
            <mxPoint x="116.5" y="240" as="sourcePoint" />
            <mxPoint as="offset" />
          </mxGeometry>
        </mxCell>
        <mxCell id="abhu93Ytleb-flPvAil3-25" value="System" style="shape=umlLifeline;perimeter=lifelinePerimeter;whiteSpace=wrap;html=1;container=0;dropTarget=0;collapsible=0;recursiveResize=0;outlineConnect=0;portConstraint=eastwest;newEdgeStyle={&quot;edgeStyle&quot;:&quot;elbowEdgeStyle&quot;,&quot;elbow&quot;:&quot;vertical&quot;,&quot;curved&quot;:0,&quot;rounded&quot;:0};" parent="1" vertex="1">
          <mxGeometry x="454.25" y="80" width="100" height="460" as="geometry" />
        </mxCell>
        <mxCell id="abhu93Ytleb-flPvAil3-26" value="" style="html=1;points=[];perimeter=orthogonalPerimeter;outlineConnect=0;targetShapes=umlLifeline;portConstraint=eastwest;newEdgeStyle={&quot;edgeStyle&quot;:&quot;elbowEdgeStyle&quot;,&quot;elbow&quot;:&quot;vertical&quot;,&quot;curved&quot;:0,&quot;rounded&quot;:0};" parent="abhu93Ytleb-flPvAil3-25" vertex="1">
          <mxGeometry x="45" y="70" width="10" height="340" as="geometry" />
        </mxCell>
        <mxCell id="abhu93Ytleb-flPvAil3-27" value="" style="shape=umlDestroy;whiteSpace=wrap;html=1;strokeWidth=3;targetShapes=umlLifeline;" parent="abhu93Ytleb-flPvAil3-25" vertex="1">
          <mxGeometry x="41.5" y="440" width="20" height="20" as="geometry" />
        </mxCell>
        <mxCell id="2nHTvawhZgZGjhpYhyEr-1" value="Added the Details of &lt;br&gt;Employee Requests" style="html=1;verticalAlign=bottom;endArrow=block;edgeStyle=elbowEdgeStyle;elbow=horizontal;curved=0;rounded=0;" parent="1" edge="1">
          <mxGeometry relative="1" as="geometry">
            <mxPoint x="314.25" y="280" as="sourcePoint" />
            <Array as="points">
              <mxPoint x="416.75" y="280" />
              <mxPoint x="376.75" y="270" />
              <mxPoint x="446.75" y="140" />
              <mxPoint x="414.25" y="130" />
              <mxPoint x="394.25" y="160" />
            </Array>
            <mxPoint x="504.25" y="280" as="targetPoint" />
            <mxPoint as="offset" />
          </mxGeometry>
        </mxCell>
        <mxCell id="biNYgUEbNofMH58p99U8-1" value="Details Saved" style="html=1;verticalAlign=bottom;endArrow=open;dashed=1;endSize=8;edgeStyle=elbowEdgeStyle;elbow=vertical;curved=0;rounded=0;" parent="1" edge="1">
          <mxGeometry relative="1" as="geometry">
            <mxPoint x="314.25" y="380" as="targetPoint" />
            <Array as="points">
              <mxPoint x="374.25" y="380" />
              <mxPoint x="414.25" y="420" />
              <mxPoint x="394.25" y="410" />
              <mxPoint x="404.25" y="410" />
            </Array>
            <mxPoint x="496.25" y="380" as="sourcePoint" />
          </mxGeometry>
        </mxCell>
        <mxCell id="S1UIRf6t2ea8HmM5_tA2-1" value="Details not Saved" style="html=1;verticalAlign=bottom;endArrow=open;dashed=1;endSize=8;edgeStyle=elbowEdgeStyle;elbow=vertical;curved=0;rounded=0;" parent="1" source="abhu93Ytleb-flPvAil3-26" edge="1">
          <mxGeometry relative="1" as="geometry">
            <mxPoint x="310.62" y="450" as="targetPoint" />
            <Array as="points">
              <mxPoint x="370.62" y="450" />
              <mxPoint x="410.62" y="490" />
              <mxPoint x="390.62" y="480" />
              <mxPoint x="400.62" y="480" />
            </Array>
            <mxPoint x="492.62" y="450" as="sourcePoint" />
          </mxGeometry>
        </mxCell>
        <mxCell id="FXQDbffLARBuaHBlsUe4-1" value="&lt;font style=&quot;border-color: var(--border-color);&quot;&gt;&lt;b style=&quot;border-color: var(--border-color); font-size: 16px;&quot;&gt;Sequence Diagram - Project Manager Send Material Request for Project&lt;/b&gt;&lt;/font&gt;" style="text;html=1;strokeColor=none;fillColor=none;align=center;verticalAlign=middle;whiteSpace=wrap;rounded=0;" parent="1" vertex="1">
          <mxGeometry x="100" y="600" width="610" height="30" as="geometry" />
        </mxCell>
        <mxCell id="FXQDbffLARBuaHBlsUe4-2" value="UI" style="shape=umlLifeline;perimeter=lifelinePerimeter;whiteSpace=wrap;html=1;container=0;dropTarget=0;collapsible=0;recursiveResize=0;outlineConnect=0;portConstraint=eastwest;newEdgeStyle={&quot;edgeStyle&quot;:&quot;elbowEdgeStyle&quot;,&quot;elbow&quot;:&quot;vertical&quot;,&quot;curved&quot;:0,&quot;rounded&quot;:0};" parent="1" vertex="1">
          <mxGeometry x="259" y="660" width="100" height="460" as="geometry" />
        </mxCell>
        <mxCell id="FXQDbffLARBuaHBlsUe4-3" value="" style="html=1;points=[];perimeter=orthogonalPerimeter;outlineConnect=0;targetShapes=umlLifeline;portConstraint=eastwest;newEdgeStyle={&quot;edgeStyle&quot;:&quot;elbowEdgeStyle&quot;,&quot;elbow&quot;:&quot;vertical&quot;,&quot;curved&quot;:0,&quot;rounded&quot;:0};" parent="FXQDbffLARBuaHBlsUe4-2" vertex="1">
          <mxGeometry x="45" y="70" width="10" height="340" as="geometry" />
        </mxCell>
        <mxCell id="FXQDbffLARBuaHBlsUe4-4" value="" style="shape=umlDestroy;whiteSpace=wrap;html=1;strokeWidth=3;targetShapes=umlLifeline;" parent="FXQDbffLARBuaHBlsUe4-2" vertex="1">
          <mxGeometry x="41.5" y="440" width="20" height="20" as="geometry" />
        </mxCell>
        <mxCell id="FXQDbffLARBuaHBlsUe4-5" value="Database" style="shape=umlLifeline;perimeter=lifelinePerimeter;whiteSpace=wrap;html=1;container=0;dropTarget=0;collapsible=0;recursiveResize=0;outlineConnect=0;portConstraint=eastwest;newEdgeStyle={&quot;edgeStyle&quot;:&quot;elbowEdgeStyle&quot;,&quot;elbow&quot;:&quot;vertical&quot;,&quot;curved&quot;:0,&quot;rounded&quot;:0};" parent="1" vertex="1">
          <mxGeometry x="651.25" y="660" width="100" height="460" as="geometry" />
        </mxCell>
        <mxCell id="FXQDbffLARBuaHBlsUe4-6" value="" style="html=1;points=[];perimeter=orthogonalPerimeter;outlineConnect=0;targetShapes=umlLifeline;portConstraint=eastwest;newEdgeStyle={&quot;edgeStyle&quot;:&quot;elbowEdgeStyle&quot;,&quot;elbow&quot;:&quot;vertical&quot;,&quot;curved&quot;:0,&quot;rounded&quot;:0};" parent="FXQDbffLARBuaHBlsUe4-5" vertex="1">
          <mxGeometry x="45" y="70" width="10" height="340" as="geometry" />
        </mxCell>
        <mxCell id="FXQDbffLARBuaHBlsUe4-7" value="" style="shape=umlDestroy;whiteSpace=wrap;html=1;strokeWidth=3;targetShapes=umlLifeline;" parent="FXQDbffLARBuaHBlsUe4-5" vertex="1">
          <mxGeometry x="41.5" y="440" width="20" height="20" as="geometry" />
        </mxCell>
        <mxCell id="FXQDbffLARBuaHBlsUe4-8" value="Insert the the Details of &lt;br&gt;Material&amp;nbsp;Requests" style="html=1;verticalAlign=bottom;endArrow=block;edgeStyle=elbowEdgeStyle;elbow=vertical;curved=0;rounded=0;" parent="1" edge="1">
          <mxGeometry relative="1" as="geometry">
            <mxPoint x="510" y="900" as="sourcePoint" />
            <Array as="points">
              <mxPoint x="551.5" y="900" />
              <mxPoint x="610" y="770" />
              <mxPoint x="590" y="800" />
            </Array>
            <mxPoint x="700" y="900.5" as="targetPoint" />
          </mxGeometry>
        </mxCell>
        <mxCell id="FXQDbffLARBuaHBlsUe4-9" value="Details of the Material&amp;nbsp;Requests&amp;nbsp;&lt;br style=&quot;border-color: var(--border-color);&quot;&gt;not saved" style="html=1;verticalAlign=bottom;endArrow=open;dashed=1;endSize=8;edgeStyle=elbowEdgeStyle;elbow=vertical;curved=0;rounded=0;exitX=0.8;exitY=0.824;exitDx=0;exitDy=0;exitPerimeter=0;" parent="1" edge="1">
          <mxGeometry x="-0.0057" relative="1" as="geometry">
            <mxPoint x="510" y="1020" as="targetPoint" />
            <Array as="points">
              <mxPoint x="560" y="1020" />
              <mxPoint x="650" y="1090" />
              <mxPoint x="630" y="1080" />
              <mxPoint x="610" y="1070" />
              <mxPoint x="590" y="1060" />
              <mxPoint x="605" y="1040" />
            </Array>
            <mxPoint as="offset" />
            <mxPoint x="700" y="1020.16" as="sourcePoint" />
          </mxGeometry>
        </mxCell>
        <mxCell id="FXQDbffLARBuaHBlsUe4-10" value="Details of the Material Requests&lt;br&gt;saved Successfully" style="html=1;verticalAlign=bottom;endArrow=open;dashed=1;endSize=8;edgeStyle=elbowEdgeStyle;elbow=horizontal;curved=0;rounded=0;" parent="1" edge="1">
          <mxGeometry relative="1" as="geometry">
            <mxPoint x="510" y="950" as="targetPoint" />
            <Array as="points">
              <mxPoint x="570" y="950" />
              <mxPoint x="610" y="990" />
              <mxPoint x="590" y="980" />
              <mxPoint x="600" y="980" />
            </Array>
            <mxPoint x="692" y="950" as="sourcePoint" />
          </mxGeometry>
        </mxCell>
        <mxCell id="FXQDbffLARBuaHBlsUe4-11" value="" style="endArrow=none;dashed=1;html=1;rounded=0;" parent="1" edge="1">
          <mxGeometry width="50" height="50" relative="1" as="geometry">
            <mxPoint x="116.5" y="1110" as="sourcePoint" />
            <mxPoint x="117.5" y="730" as="targetPoint" />
          </mxGeometry>
        </mxCell>
        <mxCell id="FXQDbffLARBuaHBlsUe4-12" value="Project Manager" style="shape=umlActor;verticalLabelPosition=bottom;verticalAlign=top;html=1;outlineConnect=0;" parent="1" vertex="1">
          <mxGeometry x="107.5" y="660" width="20" height="40" as="geometry" />
        </mxCell>
        <mxCell id="FXQDbffLARBuaHBlsUe4-13" value="Alternative" style="shape=umlFrame;whiteSpace=wrap;html=1;pointerEvents=0;" parent="1" vertex="1">
          <mxGeometry x="69" y="920" width="691" height="140" as="geometry" />
        </mxCell>
        <mxCell id="FXQDbffLARBuaHBlsUe4-14" value="" style="line;strokeWidth=1;fillColor=none;align=left;verticalAlign=middle;spacingTop=-1;spacingLeft=3;spacingRight=3;rotatable=0;labelPosition=right;points=[];portConstraint=eastwest;strokeColor=inherit;" parent="1" vertex="1">
          <mxGeometry x="69" y="986" width="691" height="8" as="geometry" />
        </mxCell>
        <mxCell id="FXQDbffLARBuaHBlsUe4-15" value="Display Request Sent Successfully" style="html=1;verticalAlign=bottom;endArrow=block;edgeStyle=elbowEdgeStyle;elbow=vertical;curved=0;rounded=0;dashed=1;exitX=0.025;exitY=0.735;exitDx=0;exitDy=0;exitPerimeter=0;" parent="1" source="FXQDbffLARBuaHBlsUe4-3" edge="1">
          <mxGeometry width="80" relative="1" as="geometry">
            <mxPoint x="286.5" y="980" as="sourcePoint" />
            <mxPoint x="116.5" y="980" as="targetPoint" />
            <Array as="points">
              <mxPoint x="206.5" y="980" />
            </Array>
          </mxGeometry>
        </mxCell>
        <mxCell id="FXQDbffLARBuaHBlsUe4-16" value="Display Error Message" style="html=1;verticalAlign=bottom;endArrow=block;edgeStyle=elbowEdgeStyle;elbow=vertical;curved=0;rounded=0;dashed=1;" parent="1" edge="1">
          <mxGeometry width="80" relative="1" as="geometry">
            <mxPoint x="304" y="1050" as="sourcePoint" />
            <mxPoint x="116.5" y="1050" as="targetPoint" />
          </mxGeometry>
        </mxCell>
        <mxCell id="FXQDbffLARBuaHBlsUe4-17" value="&lt;font style=&quot;&quot;&gt;&lt;b style=&quot;font-size: 10px;&quot;&gt;[if Details add Successfully&lt;/b&gt;&lt;b style=&quot;font-size: 10px;&quot;&gt;]&lt;/b&gt;&lt;/font&gt;" style="text;html=1;strokeColor=none;fillColor=none;align=left;verticalAlign=middle;whiteSpace=wrap;rounded=0;" parent="1" vertex="1">
          <mxGeometry x="134.25" y="930" width="135.75" height="10" as="geometry" />
        </mxCell>
        <mxCell id="FXQDbffLARBuaHBlsUe4-18" value="&lt;font style=&quot;font-size: 10px;&quot;&gt;&lt;b&gt;[else]&lt;/b&gt;&lt;/font&gt;" style="text;html=1;strokeColor=none;fillColor=none;align=left;verticalAlign=middle;whiteSpace=wrap;rounded=0;" parent="1" vertex="1">
          <mxGeometry x="69" y="998" width="80" height="10" as="geometry" />
        </mxCell>
        <mxCell id="FXQDbffLARBuaHBlsUe4-19" value="Select the Material Tab" style="html=1;verticalAlign=bottom;endArrow=blockThin;edgeStyle=elbowEdgeStyle;elbow=vertical;curved=0;rounded=0;endFill=1;" parent="1" target="FXQDbffLARBuaHBlsUe4-3" edge="1">
          <mxGeometry relative="1" as="geometry">
            <mxPoint x="286.5" y="780" as="targetPoint" />
            <Array as="points">
              <mxPoint x="228.5" y="780" />
              <mxPoint x="196" y="800" />
            </Array>
            <mxPoint x="116.5" y="780" as="sourcePoint" />
            <mxPoint as="offset" />
          </mxGeometry>
        </mxCell>
        <mxCell id="FXQDbffLARBuaHBlsUe4-20" value="Fill the Details of Material Requests" style="html=1;verticalAlign=bottom;endArrow=blockThin;edgeStyle=elbowEdgeStyle;elbow=horizontal;curved=0;rounded=0;endFill=1;" parent="1" target="FXQDbffLARBuaHBlsUe4-3" edge="1">
          <mxGeometry relative="1" as="geometry">
            <mxPoint x="286.5" y="820" as="targetPoint" />
            <Array as="points">
              <mxPoint x="228.5" y="820" />
              <mxPoint x="196" y="840" />
            </Array>
            <mxPoint x="116.5" y="820" as="sourcePoint" />
            <mxPoint as="offset" />
          </mxGeometry>
        </mxCell>
        <mxCell id="FXQDbffLARBuaHBlsUe4-21" value="System" style="shape=umlLifeline;perimeter=lifelinePerimeter;whiteSpace=wrap;html=1;container=0;dropTarget=0;collapsible=0;recursiveResize=0;outlineConnect=0;portConstraint=eastwest;newEdgeStyle={&quot;edgeStyle&quot;:&quot;elbowEdgeStyle&quot;,&quot;elbow&quot;:&quot;vertical&quot;,&quot;curved&quot;:0,&quot;rounded&quot;:0};" parent="1" vertex="1">
          <mxGeometry x="454.25" y="660" width="100" height="460" as="geometry" />
        </mxCell>
        <mxCell id="FXQDbffLARBuaHBlsUe4-22" value="" style="html=1;points=[];perimeter=orthogonalPerimeter;outlineConnect=0;targetShapes=umlLifeline;portConstraint=eastwest;newEdgeStyle={&quot;edgeStyle&quot;:&quot;elbowEdgeStyle&quot;,&quot;elbow&quot;:&quot;vertical&quot;,&quot;curved&quot;:0,&quot;rounded&quot;:0};" parent="FXQDbffLARBuaHBlsUe4-21" vertex="1">
          <mxGeometry x="45" y="70" width="10" height="340" as="geometry" />
        </mxCell>
        <mxCell id="FXQDbffLARBuaHBlsUe4-23" value="" style="shape=umlDestroy;whiteSpace=wrap;html=1;strokeWidth=3;targetShapes=umlLifeline;" parent="FXQDbffLARBuaHBlsUe4-21" vertex="1">
          <mxGeometry x="41.5" y="440" width="20" height="20" as="geometry" />
        </mxCell>
        <mxCell id="FXQDbffLARBuaHBlsUe4-24" value="Added the Details of &lt;br&gt;Material&amp;nbsp;Requests" style="html=1;verticalAlign=bottom;endArrow=block;edgeStyle=elbowEdgeStyle;elbow=horizontal;curved=0;rounded=0;" parent="1" edge="1">
          <mxGeometry relative="1" as="geometry">
            <mxPoint x="314.25" y="860" as="sourcePoint" />
            <Array as="points">
              <mxPoint x="416.75" y="860" />
              <mxPoint x="376.75" y="850" />
              <mxPoint x="446.75" y="720" />
              <mxPoint x="414.25" y="710" />
              <mxPoint x="394.25" y="740" />
            </Array>
            <mxPoint x="504.25" y="860" as="targetPoint" />
            <mxPoint as="offset" />
          </mxGeometry>
        </mxCell>
        <mxCell id="FXQDbffLARBuaHBlsUe4-25" value="Details Saved" style="html=1;verticalAlign=bottom;endArrow=open;dashed=1;endSize=8;edgeStyle=elbowEdgeStyle;elbow=vertical;curved=0;rounded=0;" parent="1" edge="1">
          <mxGeometry relative="1" as="geometry">
            <mxPoint x="314.25" y="960" as="targetPoint" />
            <Array as="points">
              <mxPoint x="374.25" y="960" />
              <mxPoint x="414.25" y="1000" />
              <mxPoint x="394.25" y="990" />
              <mxPoint x="404.25" y="990" />
            </Array>
            <mxPoint x="496.25" y="960" as="sourcePoint" />
          </mxGeometry>
        </mxCell>
        <mxCell id="FXQDbffLARBuaHBlsUe4-26" value="Details not Saved" style="html=1;verticalAlign=bottom;endArrow=open;dashed=1;endSize=8;edgeStyle=elbowEdgeStyle;elbow=vertical;curved=0;rounded=0;" parent="1" source="FXQDbffLARBuaHBlsUe4-22" edge="1">
          <mxGeometry relative="1" as="geometry">
            <mxPoint x="310.62" y="1030" as="targetPoint" />
            <Array as="points">
              <mxPoint x="370.62" y="1030" />
              <mxPoint x="410.62" y="1070" />
              <mxPoint x="390.62" y="1060" />
              <mxPoint x="400.62" y="1060" />
            </Array>
            <mxPoint x="492.62" y="1030" as="sourcePoint" />
          </mxGeometry>
        </mxCell>
      </root>
    </mxGraphModel>
  </diagram>
  <diagram id="28V8Wo4eyKNCURm-Ru4H" name="5">
    <mxGraphModel dx="1032" dy="580" grid="1" gridSize="10" guides="1" tooltips="1" connect="1" arrows="1" fold="1" page="1" pageScale="1" pageWidth="827" pageHeight="1169" math="0" shadow="0">
      <root>
        <mxCell id="0" />
        <mxCell id="1" parent="0" />
        <mxCell id="maevg0_Enk_PGo6Su9kU-1" value="&lt;font style=&quot;border-color: var(--border-color);&quot;&gt;&lt;b style=&quot;border-color: var(--border-color); font-size: 16px;&quot;&gt;Sequence Diagram - Logout from the System&lt;/b&gt;&lt;/font&gt;" style="text;html=1;strokeColor=none;fillColor=none;align=center;verticalAlign=middle;whiteSpace=wrap;rounded=0;" parent="1" vertex="1">
          <mxGeometry x="109" y="50" width="610" height="30" as="geometry" />
        </mxCell>
        <mxCell id="_X3WYVCVNFQ7fwuvDNEs-1" value="" style="shape=umlLifeline;perimeter=lifelinePerimeter;whiteSpace=wrap;html=1;container=1;dropTarget=0;collapsible=0;recursiveResize=0;outlineConnect=0;portConstraint=eastwest;newEdgeStyle={&quot;edgeStyle&quot;:&quot;elbowEdgeStyle&quot;,&quot;elbow&quot;:&quot;vertical&quot;,&quot;curved&quot;:0,&quot;rounded&quot;:0};participant=umlActor;size=40;" parent="1" vertex="1">
          <mxGeometry x="90" y="100" width="20" height="445" as="geometry" />
        </mxCell>
        <mxCell id="_X3WYVCVNFQ7fwuvDNEs-2" value="User" style="text;html=1;strokeColor=none;fillColor=default;align=center;verticalAlign=middle;whiteSpace=wrap;rounded=0;" parent="1" vertex="1">
          <mxGeometry x="40" y="140" width="120" height="20" as="geometry" />
        </mxCell>
        <mxCell id="_X3WYVCVNFQ7fwuvDNEs-3" value="UI" style="shape=umlLifeline;perimeter=lifelinePerimeter;whiteSpace=wrap;html=1;container=1;dropTarget=0;collapsible=0;recursiveResize=0;outlineConnect=0;portConstraint=eastwest;newEdgeStyle={&quot;edgeStyle&quot;:&quot;elbowEdgeStyle&quot;,&quot;elbow&quot;:&quot;vertical&quot;,&quot;curved&quot;:0,&quot;rounded&quot;:0};" parent="1" vertex="1">
          <mxGeometry x="270" y="100" width="100" height="440" as="geometry" />
        </mxCell>
        <mxCell id="_X3WYVCVNFQ7fwuvDNEs-4" value="" style="html=1;points=[];perimeter=orthogonalPerimeter;outlineConnect=0;targetShapes=umlLifeline;portConstraint=eastwest;newEdgeStyle={&quot;edgeStyle&quot;:&quot;elbowEdgeStyle&quot;,&quot;elbow&quot;:&quot;vertical&quot;,&quot;curved&quot;:0,&quot;rounded&quot;:0};" parent="_X3WYVCVNFQ7fwuvDNEs-3" vertex="1">
          <mxGeometry x="45" y="80" width="10" height="320" as="geometry" />
        </mxCell>
        <mxCell id="_X3WYVCVNFQ7fwuvDNEs-5" value="System" style="shape=umlLifeline;perimeter=lifelinePerimeter;whiteSpace=wrap;html=1;container=1;dropTarget=0;collapsible=0;recursiveResize=0;outlineConnect=0;portConstraint=eastwest;newEdgeStyle={&quot;edgeStyle&quot;:&quot;elbowEdgeStyle&quot;,&quot;elbow&quot;:&quot;vertical&quot;,&quot;curved&quot;:0,&quot;rounded&quot;:0};" parent="1" vertex="1">
          <mxGeometry x="480" y="100" width="100" height="440" as="geometry" />
        </mxCell>
        <mxCell id="_X3WYVCVNFQ7fwuvDNEs-6" value="" style="html=1;points=[];perimeter=orthogonalPerimeter;outlineConnect=0;targetShapes=umlLifeline;portConstraint=eastwest;newEdgeStyle={&quot;edgeStyle&quot;:&quot;elbowEdgeStyle&quot;,&quot;elbow&quot;:&quot;vertical&quot;,&quot;curved&quot;:0,&quot;rounded&quot;:0};" parent="_X3WYVCVNFQ7fwuvDNEs-5" vertex="1">
          <mxGeometry x="45" y="90" width="10" height="310" as="geometry" />
        </mxCell>
        <mxCell id="_X3WYVCVNFQ7fwuvDNEs-7" value="Database" style="shape=umlLifeline;perimeter=lifelinePerimeter;whiteSpace=wrap;html=1;container=1;dropTarget=0;collapsible=0;recursiveResize=0;outlineConnect=0;portConstraint=eastwest;newEdgeStyle={&quot;edgeStyle&quot;:&quot;elbowEdgeStyle&quot;,&quot;elbow&quot;:&quot;vertical&quot;,&quot;curved&quot;:0,&quot;rounded&quot;:0};" parent="1" vertex="1">
          <mxGeometry x="680" y="100" width="100" height="440" as="geometry" />
        </mxCell>
        <mxCell id="_X3WYVCVNFQ7fwuvDNEs-8" value="" style="html=1;points=[];perimeter=orthogonalPerimeter;outlineConnect=0;targetShapes=umlLifeline;portConstraint=eastwest;newEdgeStyle={&quot;edgeStyle&quot;:&quot;elbowEdgeStyle&quot;,&quot;elbow&quot;:&quot;vertical&quot;,&quot;curved&quot;:0,&quot;rounded&quot;:0};" parent="_X3WYVCVNFQ7fwuvDNEs-7" vertex="1">
          <mxGeometry x="45" y="110" width="10" height="290" as="geometry" />
        </mxCell>
        <mxCell id="_X3WYVCVNFQ7fwuvDNEs-9" value="Click Logout Button" style="html=1;verticalAlign=bottom;endArrow=block;edgeStyle=elbowEdgeStyle;elbow=vertical;curved=0;rounded=0;" parent="1" target="_X3WYVCVNFQ7fwuvDNEs-4" edge="1">
          <mxGeometry width="80" relative="1" as="geometry">
            <mxPoint x="99.99857142857144" y="190.22714285714284" as="sourcePoint" />
            <mxPoint x="383.88999999999993" y="190.08999999999997" as="targetPoint" />
          </mxGeometry>
        </mxCell>
        <mxCell id="_X3WYVCVNFQ7fwuvDNEs-10" value="Send Logout Request" style="html=1;verticalAlign=bottom;endArrow=block;edgeStyle=elbowEdgeStyle;elbow=vertical;curved=0;rounded=0;" parent="1" edge="1">
          <mxGeometry width="80" relative="1" as="geometry">
            <mxPoint x="325" y="199.99695652173924" as="sourcePoint" />
            <mxPoint x="525" y="199.99695652173924" as="targetPoint" />
          </mxGeometry>
        </mxCell>
        <mxCell id="_X3WYVCVNFQ7fwuvDNEs-11" value="Update User Session" style="html=1;verticalAlign=bottom;endArrow=block;curved=0;rounded=0;" parent="1" edge="1">
          <mxGeometry width="80" relative="1" as="geometry">
            <mxPoint x="535" y="220" as="sourcePoint" />
            <mxPoint x="725" y="220" as="targetPoint" />
          </mxGeometry>
        </mxCell>
        <mxCell id="_X3WYVCVNFQ7fwuvDNEs-12" value="Alternative" style="shape=umlFrame;whiteSpace=wrap;html=1;pointerEvents=0;" parent="1" vertex="1">
          <mxGeometry x="44" y="240" width="760" height="230" as="geometry" />
        </mxCell>
        <mxCell id="_X3WYVCVNFQ7fwuvDNEs-13" value="[if logout success]" style="text;html=1;strokeColor=none;fillColor=none;align=left;verticalAlign=middle;whiteSpace=wrap;rounded=0;" parent="1" vertex="1">
          <mxGeometry x="110" y="240" width="126" height="30" as="geometry" />
        </mxCell>
        <mxCell id="_X3WYVCVNFQ7fwuvDNEs-14" value="" style="line;strokeWidth=1;fillColor=none;align=left;verticalAlign=middle;spacingTop=-1;spacingLeft=3;spacingRight=3;rotatable=0;labelPosition=right;points=[];portConstraint=eastwest;strokeColor=inherit;" parent="1" vertex="1">
          <mxGeometry x="44" y="340" width="760" height="8" as="geometry" />
        </mxCell>
        <mxCell id="_X3WYVCVNFQ7fwuvDNEs-15" value="[else]" style="text;html=1;strokeColor=none;fillColor=none;align=center;verticalAlign=middle;whiteSpace=wrap;rounded=0;" parent="1" vertex="1">
          <mxGeometry x="50" y="350" width="30" height="10" as="geometry" />
        </mxCell>
        <mxCell id="_X3WYVCVNFQ7fwuvDNEs-16" value="Session Updated" style="html=1;verticalAlign=bottom;endArrow=open;dashed=1;endSize=8;curved=0;rounded=0;" parent="1" edge="1">
          <mxGeometry relative="1" as="geometry">
            <mxPoint x="725" y="260" as="sourcePoint" />
            <mxPoint x="535" y="260" as="targetPoint" />
          </mxGeometry>
        </mxCell>
        <mxCell id="_X3WYVCVNFQ7fwuvDNEs-17" value="Logout Success&amp;nbsp;&amp;nbsp;" style="html=1;verticalAlign=bottom;endArrow=open;dashed=1;endSize=8;curved=0;rounded=0;" parent="1" edge="1">
          <mxGeometry relative="1" as="geometry">
            <mxPoint x="525" y="280" as="sourcePoint" />
            <mxPoint x="325" y="280" as="targetPoint" />
          </mxGeometry>
        </mxCell>
        <mxCell id="_X3WYVCVNFQ7fwuvDNEs-18" value="Display Login Page" style="html=1;verticalAlign=bottom;endArrow=open;dashed=1;endSize=8;curved=0;rounded=0;" parent="1" edge="1">
          <mxGeometry relative="1" as="geometry">
            <mxPoint x="315" y="320" as="sourcePoint" />
            <mxPoint x="100.15517241379314" y="320" as="targetPoint" />
          </mxGeometry>
        </mxCell>
        <mxCell id="_X3WYVCVNFQ7fwuvDNEs-19" value="Session not updated" style="html=1;verticalAlign=bottom;endArrow=open;dashed=1;endSize=8;curved=0;rounded=0;" parent="1" edge="1">
          <mxGeometry relative="1" as="geometry">
            <mxPoint x="725" y="365" as="sourcePoint" />
            <mxPoint x="535" y="365" as="targetPoint" />
          </mxGeometry>
        </mxCell>
        <mxCell id="_X3WYVCVNFQ7fwuvDNEs-20" value="Logout unsuccess" style="html=1;verticalAlign=bottom;endArrow=open;dashed=1;endSize=8;curved=0;rounded=0;" parent="1" edge="1">
          <mxGeometry relative="1" as="geometry">
            <mxPoint x="525" y="389" as="sourcePoint" />
            <mxPoint x="325" y="389" as="targetPoint" />
          </mxGeometry>
        </mxCell>
        <mxCell id="_X3WYVCVNFQ7fwuvDNEs-21" value="Display try again" style="html=1;verticalAlign=bottom;endArrow=open;dashed=1;endSize=8;curved=0;rounded=0;" parent="1" edge="1">
          <mxGeometry relative="1" as="geometry">
            <mxPoint x="315" y="410" as="sourcePoint" />
            <mxPoint x="100.09183673469386" y="410" as="targetPoint" />
          </mxGeometry>
        </mxCell>
      </root>
    </mxGraphModel>
  </diagram>
</mxfile>
